<?xml version="1.0" standalone="no"?>
<!DOCTYPE svg PUBLIC "-//W3C//DTD SVG 1.1//EN" "http://www.w3.org/Graphics/SVG/1.1/DTD/svg11.dtd" >
<svg xmlns="http://www.w3.org/2000/svg" xmlns:xlink="http://www.w3.org/1999/xlink" version="1.1">
<metadata></metadata>
<defs>
<font id="manoleteregular" horiz-adv-x="1504" >
<font-face units-per-em="2048" ascent="1638" descent="-410" />
<missing-glyph horiz-adv-x="508" />
<glyph horiz-adv-x="0" />
<glyph unicode="&#xd;" horiz-adv-x="508" />
<glyph unicode=" "  horiz-adv-x="508" />
<glyph unicode="&#x09;" horiz-adv-x="508" />
<glyph unicode="&#xa0;" horiz-adv-x="508" />
<glyph unicode="!" horiz-adv-x="549" d="M58 309q123 34 206 11q-10 19 -86 31q-77 12 -94 36q-17 114 27 270q60 216 66 256q33 257 -98 506q-4 0 -6 15h341q99 -269 88 -444q-9 -128 -82 -342q-77 -226 -89 -328q-3 6 52 -5q7 -85 88 -315h-341q-5 22 -38 152q-24 93 -34 157z" />
<glyph unicode="&#x22;" horiz-adv-x="572" d="M58 1630q139 47 257 29q9 -2 31 -10q19 -8 30 -9q18 0 61 8q39 7 62 3q43 -169 -6 -293q-27 -68 -79 -101q-58 -38 -143 -29q2 17 -4 44q-5 26 -3 43q2 15 14 32q4 6 11 15q9 11 12 15q27 36 10 68q-104 -197 -235 -264q-16 170 25 228q6 9 -4 4q-15 -7 -17 -7 q-1 20 1 63q1 40 0 60q-2 65 -23 101z" />
<glyph unicode="#" horiz-adv-x="1365" d="M57 440q16 33 28 129q11 82 39 115q57 65 253 38q13 20 34 62q22 43 33 62q-49 18 -134 13q-26 -2 -69 -7q-45 -5 -60 -6q15 39 41 120q26 80 41 119q190 2 291 -19q65 115 57 349q110 -37 254 -29q-1 -127 -62 -377q6 -9 26 -12q25 -4 31 -8q75 212 43 373q28 11 65 5 q42 -7 55 -5q21 4 57 33q42 33 57 39q19 -204 -43 -464q50 -11 115 7q94 25 105 27q3 14 -67 -263q-98 -40 -244 -19q-6 -10 -71 -124q0 -1 325 -10q4 -12 -16 -30q-5 -5 -19 -16q-12 -11 -18 -16q-74 -74 -95 -182q-41 4 -141 14q-100 11 -151 15q-31 -66 -67 -373 q-99 81 -234 57q17 251 62 368q6 -6 -62 20q-35 -83 -57 -373h-225q-7 221 48 406q-50 8 -117 -9q-6 -2 -54 -16q-33 -9 -54 -13zM626 669q-8 1 57 -19q9 20 38 61q26 36 34 63q-10 2 -62 19q-7 -13 -36 -59q-23 -36 -31 -65z" />
<glyph unicode="$" horiz-adv-x="946" d="M77 391q0 22 1 82q1 49 0 73q29 -12 123 -71q81 -51 139 -67q1 59 13 138q3 17 19 74q13 45 11 63t-47 75q-59 73 -60 76q-90 138 -78 258q19 184 237 245q-2 11 -17 49q-11 30 -9 45q113 8 159 -6q68 -21 73 -97q176 -18 228 -116q20 -38 12 -120q-9 -105 -4 -146 q-12 -4 -47 25q-110 95 -159 108q-3 -173 -43 -280q189 -300 185 -270q18 -144 -54 -244q-67 -93 -191 -126q5 -9 103 -159q-24 3 -117 37q-77 27 -141 23q-43 71 -47 95q-155 27 -267 94q-21 42 -22 142zM460 1041q-2 -30 13 -40q-1 15 3 43q4 22 -3 39q-10 -16 -13 -42z " />
<glyph unicode="%" horiz-adv-x="1379" d="M59 29q65 379 401 671q-153 -8 -257 76q-101 80 -115 209q-19 172 64 289q88 122 255 131q188 11 302 -130q115 -142 65 -333q206 162 280 453q89 -6 270 39q-135 -487 -435 -729q181 18 288 -95q105 -111 89 -287q-12 -133 -107 -227q-102 -100 -245 -91 q-168 11 -273 135q-114 136 -70 328q-1 5 5 5q-171 -122 -290 -473q-30 15 -112 10q-78 -5 -115 19zM364 1050q0 -50 15 -85q17 -39 47 -43q47 -6 75 38q25 39 25 98q-1 58 -25 95q-28 41 -75 30q-29 -7 -46 -47q-16 -37 -16 -86zM826 363q-3 -63 24 -104q31 -45 83 -32 q53 13 56 117q2 101 -37 144q-57 17 -92 -25q-32 -37 -34 -100z" />
<glyph unicode="&#x26;" horiz-adv-x="1512" d="M72 569q28 274 339 388q-41 158 -34 221q13 117 111 188q88 63 208 68q168 7 288 -113t111 -285q-7 -125 -92 -203q-68 -63 -208 -112q30 -150 113 -260q44 80 83 329q20 -3 49 -27t50 -27q29 -5 97 9q66 14 99 6q2 -288 -187 -502q56 -56 166 -100q33 -14 96 -36 q68 -24 97 -36q-252 -70 -432 -69q-72 1 -99 7q-43 10 -73 42q-79 -45 -208 -55q-121 -9 -220 16q-394 160 -354 551zM378 592q-24 -75 6 -157q31 -82 102 -127q78 -51 176 -34q-101 167 -177 437q-81 -38 -107 -119zM701 1144q-10 -41 30 -153q44 0 64 33q18 29 10 68 q-7 39 -34 56q-31 19 -70 -4z" />
<glyph unicode="'" horiz-adv-x="447" d="M67 1643h283q30 -80 28 -167q-2 -86 -35 -159q-33 -76 -91 -122q-62 -49 -142 -55q-4 14 -20 45q-13 25 -15 45q-4 37 24 78q34 51 39 68q-8 5 -29 4q-29 -1 -34 0q51 86 -8 263z" />
<glyph unicode="(" horiz-adv-x="569" d="M50 583q1 122 50 251q20 52 101 219q108 222 256 387q33 -48 60 -119q-100 -283 -133 -466q-5 -23 -39 -137q-27 -89 -30 -162q-8 -223 190 -556q-206 58 -329 211q-129 159 -126 372z" />
<glyph unicode=")" horiz-adv-x="566" d="M47 119q99 282 132 464q5 22 39 136q27 89 30 162q8 221 -189 553q205 -58 327 -210q129 -159 126 -370q-2 -121 -50 -250q-20 -52 -101 -219q-108 -220 -254 -385q-34 48 -60 119z" />
<glyph unicode="*" horiz-adv-x="597" d="M60 1418q2 17 23 70q16 42 11 82q96 -16 147 -43q-5 72 -3 146q13 -6 32 -19q25 -18 31 -21q49 4 86 -26q6 -73 -6 -118q23 8 53 25q44 24 50 27q16 -19 27 -79t28 -79q-3 0 -141 -34q15 -25 45 -48q11 -8 28 -20q24 -15 28 -18q-13 -7 -85 -46q-52 -27 -87 -43 q-5 28 -27 60q-29 41 -34 52q-21 -31 -51 -92q-44 12 -98 72q-2 2 -19 17q-15 12 -15 14q0 7 19 23q22 19 21 17q5 7 23 35q12 20 23 29q-12 2 -109 17z" />
<glyph unicode="+" horiz-adv-x="1251" d="M57 693q-17 127 23 178q38 49 150 58q106 8 304 -39q59 155 -5 453q142 -52 231 -43q50 -282 -10 -477q81 -28 221 -23q39 1 114 7q73 5 104 6q-44 -171 -39 -221q-249 -37 -467 19q-60 -172 10 -453q-141 53 -236 43q-45 296 9 477q-63 28 -191 25q-33 -1 -110 -6 q-72 -4 -108 -4z" />
<glyph unicode="," horiz-adv-x="557" d="M145 -113q3 15 37 46q29 27 25 53q-14 10 -51 18q24 45 18 103q-5 50 -29 98q38 22 128 21q104 -2 132 5q24 -77 24 -158q0 -83 -26 -150q-28 -72 -81 -111q-58 -42 -140 -39q-4 12 -13 28l-14 28q-15 32 -10 58z" />
<glyph unicode="-" horiz-adv-x="960" d="M115 602v223q64 34 111 46q60 15 142 9q49 -3 135 -29q89 -27 126 -31q59 -5 130 14q4 1 58 18q36 11 61 16q5 -38 4 -107q-1 -92 0 -112q-149 -45 -283 -34q-46 4 -108 23q-99 32 -102 33q-63 16 -142 -14q-19 -7 -67 -29q-41 -18 -65 -26z" />
<glyph unicode="." horiz-adv-x="702" d="M210 206q37 20 113 17q88 -2 115 5q8 -33 7 -101q-2 -90 -1 -108q-34 -19 -101 -16q-83 4 -114 -3q-9 29 -5 105q3 68 -14 101z" />
<glyph unicode="/" horiz-adv-x="713" d="M61 0q-39 427 180 724q120 163 171 303q66 184 43 394q0 12 5 13h171q95 -367 -171 -754q-13 -18 -52 -65q-34 -40 -49 -67q-127 -222 -97 -548h-201z" />
<glyph unicode="0" horiz-adv-x="1140" d="M73 826q36 199 116 351q119 223 320 251q350 48 513 -305q70 -153 69 -315q-2 -129 -45 -286q-45 -166 -83 -241q-68 -134 -179 -209q-107 -73 -225 -72q-187 2 -319 130q-118 114 -164 298q-43 173 -3 398zM357 478q8 -83 50 -142q46 -64 112 -65q84 -2 134 103 q14 29 68 207q77 250 59 389q-11 88 -63 146q-57 63 -134 46q-49 -11 -108 -128q-55 -109 -90 -264q-40 -171 -28 -292z" />
<glyph unicode="1" horiz-adv-x="713" d="M54 1393q174 -10 481 41q43 7 81 -167q26 -114 31 -203q7 -128 -58 -372q-67 -250 -64 -363q3 -90 39 -183q10 -27 32 -75t30 -71h-344q-119 255 -41 598q12 50 41 130q31 86 41 123q13 52 5 284q-102 6 -123 10q-62 12 -90 51q-21 27 -33 93q-14 75 -28 104z" />
<glyph unicode="2" horiz-adv-x="1054" d="M64 372q-3 -7 54 90q84 140 225 225q35 21 117 54q86 34 122 55q134 76 121 216q-8 81 -72 121q-56 36 -146 35q-81 -1 -163 -30q-81 -28 -124 -71q-36 31 -52 123q-18 100 -43 131q137 99 350 112q218 12 364 -77q130 -79 173 -269q44 -196 -48 -345q-61 -100 -204 -180 q-35 -19 -102 -47q-73 -32 -103 -47q-116 -60 -155 -150q435 -43 524 -25q6 -25 33 -132q21 -81 32 -133q-94 -32 -227 -27q-45 1 -114 7q-93 9 -108 10q-71 5 -214 -2q-150 -7 -220 -3q-65 255 -20 359z" />
<glyph unicode="3" horiz-adv-x="979" d="M60 413q367 -231 472 -89q40 54 20 146q-20 87 -69 125q-110 84 -275 98q-22 58 -7 129q6 23 18 59q15 48 18 58q48 4 181 -32q111 -30 173 -2q53 23 62 92q8 66 -27 109q-65 81 -227 60q-134 -17 -236 -79q-19 49 -39 139q-26 117 -34 146q211 75 418 60 q234 -18 349 -149q54 -61 76 -156q23 -103 -2 -208q-28 -118 -172 -201q5 -8 41 -55q27 -35 42 -60q47 -73 54 -146q9 -81 -18 -176q-28 -97 -75 -149q-108 -116 -327 -130q-180 -11 -401 47q-58 201 -15 364z" />
<glyph unicode="4" horiz-adv-x="1168" d="M46 416q4 26 0 115q-4 77 10 118q18 51 162 192q45 45 145 130q96 83 142 129q157 157 204 334q87 -39 254 -30q100 -334 -31 -816q34 -15 93 -6q97 16 95 16q-45 -152 -36 -278q-31 -7 -90 -6q-82 2 -97 1q-6 -152 55 -309q-60 -7 -169 -6q-144 2 -175 1 q-35 197 -30 354q-289 99 -532 61zM456 695q34 -9 172 -61q63 210 66 263q-40 -44 -116 -104q-98 -77 -122 -98z" />
<glyph unicode="5" horiz-adv-x="999" d="M46 397q7 -3 114 -48q87 -37 147 -53q184 -49 233 66q28 67 17 147q-11 76 -52 127q-56 70 -159 96q-97 24 -220 4q62 360 60 394q-6 105 -85 294q162 16 406 7q338 -12 397 -12q8 -59 27 -153q21 -111 28 -151q-121 -20 -469 25q-4 -23 -6 -80q-2 -64 -4 -85 q419 -159 419 -533q0 -147 -75 -251q-68 -94 -191 -144q-242 -97 -522 5q-19 120 -65 345z" />
<glyph unicode="6" horiz-adv-x="1057" d="M45 662q17 278 147 506q143 248 408 265q140 9 393 -74q46 -215 10 -339q-24 11 -92 50q-65 37 -105 54q-134 60 -231 24q-50 -19 -80 -78q-11 -21 -24 -57q-19 -52 -23 -61q248 28 411 -106q173 -143 154 -400q-14 -176 -116 -298q-106 -127 -268 -144 q-288 -30 -451 172q-151 187 -133 486zM350 455q21 -89 82 -141q67 -58 158 -40q64 12 88 144q22 122 -4 190q-20 50 -80 80t-122 18q-80 -15 -112 -92q-30 -71 -10 -159z" />
<glyph unicode="7" horiz-adv-x="1071" d="M37 1406q157 37 475 25q379 -15 484 -5q2 -31 24 -125q17 -73 11 -131q-15 -132 -116 -271q-59 -80 -200 -221q-170 -170 -224 -265q-97 -172 -47 -373q-230 7 -317 -40q-72 380 211 703q22 25 204 183q125 110 168 213q-408 66 -608 51q-45 190 -65 256z" />
<glyph unicode="8" horiz-adv-x="1074" d="M50 544q24 98 82 174q61 80 146 116q-94 130 -98 224q-6 151 103 260q108 106 267 115q202 11 346 -110q151 -127 131 -318q-10 -98 -72 -176q-40 -50 -137 -126q133 -87 161 -272q28 -193 -93 -312q-139 -137 -389 -116q-246 20 -370 169q-129 154 -77 372zM331 528 q-40 -103 33 -188q70 -79 172 -75q89 3 116 53q40 72 -77 190q-43 42 -132 127q-90 -51 -112 -107zM501 1141q-13 -86 42 -154q17 -22 52 -54q39 -35 53 -50q57 20 87 79q32 62 5 120q-24 51 -98 68q-72 17 -141 -9z" />
<glyph unicode="9" horiz-adv-x="1077" d="M62 218q-7 75 19 153q-1 0 168 -68q107 -42 188 -31q71 10 118 73q22 29 70 129q-224 -62 -398 98q-165 150 -165 371q-1 207 135 351q145 154 364 138q217 -15 347 -183q122 -157 127 -389q3 -181 -65 -381q-66 -191 -167 -316q-104 -126 -306 -155q-201 -29 -406 51 q-27 130 -29 159zM388 889q6 -101 89 -154q84 -54 173 -9q42 22 65 84q22 57 18 124q-4 102 -70 174q-72 79 -167 53q-58 -16 -77 -71q-9 -24 -16 -107q-2 -12 -10 -48q-6 -29 -5 -46z" />
<glyph unicode=":" horiz-adv-x="610" d="M107 508q-5 -65 13 -158q31 -160 30 -152q21 0 159 -1q98 -1 142 5q-5 56 -30 140q-26 91 -32 137q-191 35 -282 29zM107 1214q8 -26 24 -63q20 -49 25 -62q28 -75 23 -152q191 -39 324 -33q-17 25 -38 172q-18 122 -72 138q-41 13 -135 3q-101 -12 -151 -3z" />
<glyph unicode=";" horiz-adv-x="644" d="M140 513q-2 -97 48 -130q-32 -155 29 -244q77 28 101 49q62 51 73 186q20 226 21 228q-46 4 -119 31q-72 28 -121 30q-30 -72 -32 -150zM176 1240q25 -148 61 -240q206 -29 264 -20q-52 127 -65 260h-260z" />
<glyph unicode="&#x3c;" horiz-adv-x="1151" d="M41 490q96 84 251 142q101 38 291 84q197 48 276 110q-7 -5 202 198q5 -30 4 -130q-1 -84 12 -121q-210 -232 -591 -259q240 -219 275 -239q-1 1 146 -52q118 -43 134 -65q7 -11 10 -30q4 -24 6 -31q5 -15 26 -48q18 -30 22 -49q-305 24 -562 215q-35 25 -104 88 q-67 61 -107 90q-90 65 -291 97z" />
<glyph unicode="=" horiz-adv-x="1115" d="M78 645q-7 -101 35 -215q9 3 70 29q45 18 84 23q88 11 227 -21q174 -39 236 -43q84 -6 180 9q118 19 145 59q17 24 11 88q-7 80 -6 84q-163 -47 -275 -48q-68 0 -144 21q-22 6 -65 20q-43 13 -65 19q-181 50 -433 -25zM86 793q7 -60 1 -84q27 5 95 24q55 16 94 19 q97 7 253 -31q192 -46 244 -51q64 -6 148 17q115 31 143 35v119v108q-1 0 -97 -41q-59 -24 -104 -28q-82 -5 -261 38q-173 41 -258 31q-109 -13 -141 -20q-94 -20 -112 -57q-12 -25 -5 -79z" />
<glyph unicode="&#x3e;" horiz-adv-x="1215" d="M61 1020q57 9 118 -4q-6 2 93 -25q138 -38 206 -76q129 -72 325 -236q129 -108 160 -118q35 -12 99 -14q83 -4 108 -7q-167 -169 -552 -249q-232 -48 -397 -202q-85 -81 -101 -89q-1 7 -27 117q-17 69 2 111q45 103 248 185q119 48 346 85q-119 168 -405 295 q-12 5 -39 15q-37 13 -47 16q-58 22 -74 40q4 -3 -21 64q-5 14 -24 48q-15 27 -18 44z" />
<glyph unicode="?" horiz-adv-x="968" d="M52 1372q7 -26 34 -139q21 -85 36 -137q299 115 427 40q48 -28 53 -89q6 -61 -33 -112q-33 -43 -148 -102q-116 -59 -158 -113q-52 -66 -68 -152q-11 -62 -13 -205q75 6 162 -14q121 -28 144 -31q-6 186 35 261q209 112 271 169q131 119 126 293q-6 197 -174 306 q-158 102 -393 85q-61 -5 -150 -26q-135 -31 -151 -34zM182 333q-5 -75 12 -162q30 -151 29 -144q76 -35 326 -25q-18 36 -76 301q-173 36 -291 30z" />
<glyph unicode="@" horiz-adv-x="1604" d="M64 763q41 167 155 305q11 14 30 46q18 31 30 44q97 111 254 185q163 77 340 89q167 12 315 -51q141 -59 237 -175q97 -116 128 -263q33 -155 -15 -315q-59 -196 -210 -306q-169 -123 -400 -94q7 -21 35 -80q23 -48 30 -85q-200 -79 -396 -59q-186 19 -326 122 q-140 104 -197 266q-60 171 -10 371zM289 651q-20 -212 120 -323q69 -55 185 -76q122 -22 234 6q-73 76 -85 105q-114 -85 -251 -40q-62 20 -103 65q-43 47 -50 110q-13 104 35 229q42 110 109 191q159 190 390 210q71 6 166 -13q8 -1 81 -17q49 -10 83 -15 q-147 141 -399 90q-225 -46 -366 -190q-130 -134 -149 -332zM608 568q274 116 350 305q-71 38 -138 11q-47 -19 -102 -76q-100 -106 -110 -240zM1048 443q85 5 151 62q62 52 95 138q71 187 -21 350q-36 -130 -225 -550z" />
<glyph unicode="A" d="M39 5q46 484 237 771q27 40 104 149q67 93 103 151q113 180 150 350q34 8 78 8q27 0 59 -3q107 -10 144 -10h6q124 -249 192 -781q24 -184 136 -353q41 -62 211 -262q-35 1 -70 1q-122 0 -247 -16q-80 -10 -97 -10h-4q-28 8 -110 156q-21 38 -86 182q-279 64 -408 90 q-92 -142 -92 -339q0 -21 1 -43h-12q-74 0 -295 -41zM583 690q103 -28 191 -60q-11 232 -30 282q-24 -42 -80 -111q-58 -72 -81 -111z" />
<glyph unicode="B" horiz-adv-x="1038" d="M52 452q6 136 57 467q14 95 14 181q0 177 -60 319q226 15 352 15q44 0 76 -2q247 -14 375 -109q69 -51 102 -145q24 -67 25 -140q0 -23 -3 -47q-9 -101 -57 -178q-53 -84 -138 -116q15 -22 57 -74q40 -48 59 -80q53 -85 54 -184q0 -20 -3 -41q-14 -139 -128 -225 q-110 -82 -271 -83q-41 0 -113 6q-96 7 -119 8q-28 2 -54 2q-103 0 -163 -26q-64 157 -64 378q0 36 2 74zM351 318q15 -1 63 -6q44 -4 69 -5h4q77 0 101 36q17 25 17 56q0 58 -60 134q-85 110 -159 118q-36 -170 -36 -297q0 -18 1 -36zM452 899q47 -13 86 -13q48 0 84 19 q63 32 63 101q0 7 -1 14q-5 65 -72 97q-39 18 -140 34q1 -6 0 -16q1 -54 -20 -236z" />
<glyph unicode="C" horiz-adv-x="1285" d="M62 807q23 163 88 296q69 140 169 207q68 47 157 84q97 40 234 40q54 0 113 -6q63 -6 185 -26q130 -21 191 -28q35 -157 35 -314q0 -20 -1 -40q-56 2 -290 93q-109 42 -197 42q-64 0 -118 -22q-163 -68 -230 -305q-27 -96 -28 -179q0 -125 62 -224q93 -150 326 -150h12 q220 3 394 121q-1 6 6 -150q4 -88 33 -121q-192 -125 -436 -125q-58 0 -119 7q-314 37 -472 231q-80 99 -110 257q-15 79 -15 164q0 72 11 148z" />
<glyph unicode="D" horiz-adv-x="1304" d="M53 579q6 70 26 217q19 142 25 214q4 55 4 105q0 174 -51 293q68 2 167 11q107 10 167 13q42 2 82 2q340 0 551 -151q237 -170 237 -487q0 -29 -2 -60q-12 -177 -99 -342q-83 -156 -200 -242q-105 -76 -274 -86q-28 -2 -68 -2t-92 2q-132 3 -179 3q-171 -1 -245 -69 q-56 208 -56 426q0 76 7 153zM342 353q45 -1 113 -9q83 -9 104 -11q18 -1 34 -1q89 0 146 36q118 74 170 286q22 88 22 162q0 106 -45 184q-50 87 -170 127q-93 31 -261 40q-5 -126 -64 -400q-49 -229 -50 -386q1 -14 1 -28z" />
<glyph unicode="E" horiz-adv-x="1035" d="M46 512q6 80 44 276q35 177 37 277v7q0 122 -66 353q81 9 203 9q100 0 228 -6q134 -6 238 -6q120 0 198 8q6 -44 31 -159q21 -99 25 -150q-358 10 -507 35v-25q0 -135 -20 -213q46 -7 208 -62q94 -32 178 -32q23 0 45 2q-13 -44 -36 -136q-22 -93 -35 -137q-19 -1 -39 -1 q-94 0 -190 28q7 -2 -197 69q-41 -102 -41 -295v-35q351 -37 507 -37q40 0 66 2q10 -43 36 -139l35 -140l-446 10q-40 1 -117 6t-114 6h-16q-118 0 -194 -27q-65 192 -65 406q0 52 4 106z" />
<glyph unicode="F" horiz-adv-x="1046" d="M54 507q6 93 43 262q37 171 42 246q2 25 2 52q0 158 -67 350q64 17 181 17q69 0 157 -6q189 -14 289 -14q45 0 71 3q104 10 115 10h1q48 -17 60 -76q3 -18 5 -54q3 -40 5 -56q4 -23 24 -64q18 -35 16 -57q-302 4 -517 35v-17q0 -174 -20 -239q32 -3 112 -38 q82 -36 129 -42q14 -2 39 -1q28 0 39 -1q44 -3 63 -33q15 -24 15 -60q0 -25 -8 -56q-33 -138 -32 -130q-21 -1 -41 -1q-93 0 -190 29q-18 5 -97 32q-59 20 -99 30q-32 -98 -32 -225q0 -161 52 -368q-25 0 -82 1h-30q-27 0 -44 -1q-80 -3 -121 -35q-84 172 -84 407 q0 49 4 100z" />
<glyph unicode="G" horiz-adv-x="1251" d="M46 531q-12 74 -12 148q0 186 78 365q110 252 339 349q98 42 238 42q55 0 117 -7q63 -7 187 -28q125 -20 185 -27q31 -143 31 -302q0 -30 -1 -61q-52 12 -232 88q-138 59 -237 59h-3q-148 -1 -253 -123q-97 -112 -120 -275q-8 -56 -8 -106q0 -163 85 -268 q101 -125 294 -125q32 0 66 3q15 261 59 378h324q-38 -147 -38 -293q0 -136 33 -272q-223 -76 -441 -76q-24 0 -47 1q-258 10 -421 129q-180 131 -223 401z" />
<glyph unicode="H" horiz-adv-x="1221" d="M49 1402q361 7 361 10h-1q43 -132 43 -286q0 -87 -14 -181q65 -16 208 -60q131 -42 210 -58q31 106 31 243q0 146 -35 328h153h-1q76 4 118 34h10q55 -209 56 -410q0 -68 -7 -136q-7 -77 -29 -227q-21 -146 -27 -217q-4 -53 -5 -103q0 -176 56 -305q-15 1 -34 1 q-57 0 -150 -9q-42 -4 -80 -4q-52 0 -95 8q-47 137 -47 290q0 116 27 241q-63 13 -206 60q-127 41 -212 53q-37 -142 -37 -303q0 -137 27 -287q-30 -26 -135 -39q-102 -13 -130 -45q-63 185 -63 413q0 138 23 291q39 260 43 357q1 20 1 39q0 177 -59 302z" />
<glyph unicode="I" horiz-adv-x="560" d="M57 411v9q0 100 62 328q57 209 57 343q0 15 -1 29q-7 122 -77 298q1 8 -5 10q52 6 142 6h26q97 -1 143 -1h33q71 -168 71 -376q0 -123 -25 -260q-10 -56 -41 -150q-32 -99 -41 -143q-12 -56 -12 -114q0 -71 18 -145q18 -71 86 -239q-54 -6 -144 -6h-27q-98 1 -144 1h-34 q-84 277 -87 410z" />
<glyph unicode="J" horiz-adv-x="963" d="M56 73q25 -3 169 -52q68 -23 124 -23q29 0 54 6q8 24 27 272q7 94 65 251q65 177 79 251q13 75 13 157q0 217 -93 483q-4 0 -6 16h168h168q95 -226 95 -489q0 -79 -9 -162q-10 -95 -64 -273q-52 -173 -59 -255q-23 -289 -30 -320q-34 -151 -151 -208q-93 -46 -220 -46 q-79 0 -245 24q-40 88 -85 368z" />
<glyph unicode="K" horiz-adv-x="1454" d="M54 493q6 83 28 231q26 173 33 236q8 78 8 146q0 174 -53 287q75 41 316 41h44q41 -180 41 -326q0 -72 -10 -137q286 188 386 442h160h148q-98 -399 -509 -679q180 -522 766 -699q-295 -48 -432 -57q-90 -6 -123 -6q-12 0 -16 1q-37 9 -144 118q-161 165 -318 463 q-22 -64 -23 -164q0 -53 7 -116q10 -96 10 -163.5t-10 -106.5q-7 1 -19 1q-34 0 -110 -8q-26 -3 -48 -3q-52 0 -85 15q-50 218 -50 402q0 42 3 82z" />
<glyph unicode="L" horiz-adv-x="1060" d="M67 589q8 64 34 210q24 137 32 210q5 52 5 100q0 170 -66 283q86 42 289 42q30 0 62 -1q68 -162 68 -353q0 -31 -2 -64q-5 -91 -79 -345q-44 -152 -44 -272q0 -45 6 -85q205 -47 456 -47q53 0 108 2q-2 4 82 -244q-120 -25 -317 -25q-55 0 -117 2q-261 8 -388 8 q-53 0 -83 -1q-57 197 -57 400q0 89 11 180z" />
<glyph unicode="M" horiz-adv-x="1443" d="M39 345v28q0 123 22 324q29 256 29 432q0 167 -26 262q132 35 250 40q63 3 99.5 3t45.5 -3q35 -11 110 -170q62 -131 97 -323q26 -144 26 -266q0 -44 -3 -86q168 205 242 345q113 212 133 455q45 0 147 14q83 11 141 11h17q41 -212 41 -415q0 -106 -11 -210 q-32 -300 -32 -493q0 -160 22 -247q-119 -46 -285 -46q-22 0 -45 1q-48 140 -48 296q0 139 38 289q-191 -239 -280 -500q-192 30 -255 30h-10q-108 264 -125 635q-55 -214 -54 -409q0 -176 44 -336q-47 24 -124 24h-6q-27 0 -69 -4q-56 -5 -66 -5q-60 136 -65 324z" />
<glyph unicode="N" horiz-adv-x="1249" d="M56 1385q133 49 235 49q44 0 81 -9t91 -72q17 -19 43 -53q28 -35 37 -46q102 -119 140 -195q43 -84 87 -263q43 -177 79 -244q81 290 81 521q0 201 -61 357q41 -23 118 -23q14 0 29 1q33 2 60 2q63 0 94 -10q37 -129 36 -296v-48q-4 -106 -34 -353q-23 -184 -23 -328 q0 -215 51 -340q-229 -35 -326 -35h-5q-210 204 -291 386q-40 89 -88 246q-60 196 -83 256q-66 -201 -80 -430q-4 -59 -4 -115q0 -187 44 -338q-37 22 -106 22q-15 0 -33 -1q-29 -2 -54 -2q-62 0 -93 11q-34 143 -34 334q0 160 24 353q35 276 37 343q1 18 1 35 q0 165 -53 285z" />
<glyph unicode="O" horiz-adv-x="1385" d="M55 801q21 157 86 289q68 136 167 213q143 110 328 127q43 4 84 4q281 0 454 -193q172 -191 171 -496q0 -44 -3 -89q-14 -184 -106 -344q-90 -159 -223 -234q-136 -78 -298 -78q-75 0 -156 17q-244 50 -373 213q-140 175 -140 432q0 67 9 139zM377 504q5 -28 42 -85 q35 -53 56 -72q57 -52 159 -65q28 -4 55 -4q72 0 128 30q124 66 185 310q25 103 25 190q0 125 -53 215q-39 67 -120 104q-67 30 -141 30q-16 0 -33 -1q-68 -6 -88 -15q-87 -38 -148 -165q-58 -119 -67 -261q-6 -79 -6 -132t6 -79z" />
<glyph unicode="P" horiz-adv-x="1093" d="M48 1395q27 4 112 20q63 12 107 15q59 4 117 4q125 0 247 -19q211 -33 292 -112q119 -114 124 -315v-20q0 -188 -109 -316q-85 -101 -242 -133q-61 -13 -122 -13q-100 0 -200 34q-19 -64 -19 -158q0 -151 49 -381h-29q-40 0 -124 -1h-23q-78 0 -124 6q-58 128 -58 318 q0 76 9 162q8 72 37 256q26 161 33 251q3 34 3 68q0 184 -80 334zM435 830q24 -2 85 -21q38 -11 68 -12q10 0 20 2q78 12 112 109q13 38 13 71q0 54 -34 95q-33 41 -97 55q3 -1 -132 16q5 -28 5 -63q0 -98 -40 -252z" />
<glyph unicode="Q" horiz-adv-x="1540" d="M57 534q-10 66 -10 132q0 107 26 217q42 179 141 314q104 142 244 197q102 40 219 40q77 0 160 -17q193 -39 310 -141q199 -171 217 -473q2 -30 2 -59q0 -190 -79 -359q-87 -187 -243 -297q138 -51 318 -51q67 0 140 7q2 -12 -44 -74q-8 -10 -29 -36q-20 -23 -30 -38 q-6 -8 -24 -37t-30 -45q-39 -55 -69 -61h-3q-25 0 -170 40q-275 75 -429 207q-312 10 -488 226q-101 126 -129 308zM384 542q13 -120 106 -196q84 -68 197 -68q20 0 42 2q142 17 238 183q87 151 87 325q-1 169 -102 278q-90 96 -222 96q-27 0 -56 -4q-66 -10 -103 -35 q-94 -62 -150 -231q-42 -128 -42 -258q0 -46 5 -92z" />
<glyph unicode="R" horiz-adv-x="1283" d="M42 362q2 115 32 348q25 201 25 357q0 201 -42 324q183 43 352 43q106 0 207 -17q305 -51 381 -247q32 -82 32 -162q0 -98 -48 -195q-85 -171 -255 -206q62 -176 207 -317q104 -101 300 -226q-175 -55 -251 -60q-58 -4 -101 -4q-64 0 -95 9q-34 10 -131 121 q-148 169 -231 397q-2 6 -5 23q-4 17 -7 25q-10 29 -38 27q-35 -99 -35 -231q0 -158 50 -362q-49 16 -120 16h-23t-77 -4q-48 -2 -82 -2q-45 141 -45 320v23zM429 878q8 0 106 -16q20 -3 38 -3q38 0 67 14q40 19 59 65q13 32 13 65q0 8 -1 16q-8 67 -95 105q-69 31 -148 31 h-14v-21q0 -84 -25 -256z" />
<glyph unicode="S" horiz-adv-x="1016" d="M33 446q71 -8 210 -81q142 -75 217 -86q21 -3 40 -3q42 0 73 14q54 25 54 89q0 41 -33 81q-11 14 -35 38q-29 29 -40 42q-26 28 -65 75q-47 55 -58 67q-7 9 -82 88q-49 53 -76 91q-72 100 -72 216v18q6 146 109 240q101 91 259 99h25q92 0 196 -25q16 -4 102 -27 q64 -18 109 -27q-4 -18 -4 -46q0 -48 11 -126q5 -39 5 -72q0 -60 -17 -100q-30 11 -157 78q-99 52 -172 60q-13 1 -25 1q-34 0 -62 -10q-41 -16 -45 -45q-1 -4 0 -9q0 -48 73 -130q26 -30 65 -67q53 -50 48 -45l158 -158q87 -99 112 -191q14 -47 14 -107q0 -31 -4 -65 q-12 -123 -102 -203q-81 -73 -214 -101q-87 -19 -175 -19q-177 0 -354 78q-8 31 -36 192q-20 120 -52 176z" />
<glyph unicode="T" horiz-adv-x="1282" d="M48 1293q-6 28 -6 52q0 34 11 62q121 27 312 27q115 0 256 -10q210 -15 361 -15q141 0 231 13q3 -20 15 -72q11 -48 15 -76q5 -33 5 -63q0 -52 -15 -91q-184 -8 -278 -8q-67 0 -87 4q1 -18 1 -36q0 -135 -58 -314q-82 -251 -92 -322q-3 -26 -3 -59q0 -131 53 -385 q-48 29 -161 44q-136 17 -175 30q-35 112 -35 245q0 142 40 306q105 436 109 535q-80 19 -197 19q-21 0 -43 -1q-43 -2 -124 -7q-83 -5 -120 -6v13q0 42 -15 115z" />
<glyph unicode="U" horiz-adv-x="1176" d="M38 455q-2 18 -2 41q0 117 43 360q25 144 25 252q0 86 -16 150q-5 21 -24 68q-19 46 -26 71q83 37 265 37q44 0 93 -2q44 -118 44 -274t-44 -351l-48 -205q-8 -51 -9 -93q0 -59 17 -99q28 -72 126 -113q53 -22 100 -22q46 0 86 21q53 28 80 155q7 35 18 109q10 69 16 98 q6 26 20 61q16 39 20 53q28 102 28 239q0 35 -2 73q-3 68 -31 298q68 41 209 41q26 0 54 -1q46 -148 46 -366t-46 -507q-34 -213 -38 -230q-28 -120 -86 -177q-79 -77 -211 -115q-94 -27 -185 -27q-30 0 -60 3q-188 20 -312 136q-132 122 -150 316z" />
<glyph unicode="V" horiz-adv-x="1373" d="M40 1375q29 5 113 29q73 22 119 26q54 4 89 4t50 -4q44 -13 129 -159q143 -247 143 -683v-24q59 43 143 163q228 323 248 688q29 -12 81 -12q21 0 47 2t48 2q54 0 86 -12q-4 -377 -218 -737q-24 -41 -94 -147q-61 -93 -93 -151q-100 -181 -114 -360q-35 26 -135 36 q-108 11 -142 28q-141 276 -169 619q-30 380 -207 573q-11 12 -66 57q-43 35 -58 62z" />
<glyph unicode="W" horiz-adv-x="1687" d="M32 1355q354 48 348 48q143 -219 170 -663q210 286 266 653q253 -29 275 -29h1q71 -285 71 -542q0 -129 -18 -251q171 276 217 590q25 165 73 194q19 11 48 11q37 0 49 3q26 7 55 31q37 30 51 37q5 1 5 -5q1 -20 1 -41q0 -328 -151 -714q-269 -689 -266 -677h-18 q-220 0 -282 24q-89 251 -89 495q0 104 16 207q-117 -190 -155 -282q-68 -164 -68 -343q0 -19 1 -38h-276q-67 184 -116 692q-36 369 -208 600z" />
<glyph unicode="X" horiz-adv-x="1496" d="M34 1419q39 -1 77 -1q135 0 268 11q54 4 86.5 4.5t43.5 -4.5q12 -4 96 -95q147 -160 215 -340q74 67 134 188q28 55 96 227q31 -10 75 -10q23 0 49 3q71 8 116 8q16 0 30 -1q-61 -404 -405 -740q116 -395 530 -616q-50 -14 -230 -35q-152 -18 -214 -18q-25 0 -36 3 q-22 6 -100 95q-103 118 -220 360q-155 -146 -241 -440q-32 13 -83 13q-20 0 -43 -2q-76 -7 -117 -7q-16 0 -27 1q28 243 149 442q94 154 272 319q-50 198 -214 370q-52 54 -307 265z" />
<glyph unicode="Y" horiz-adv-x="1329" d="M22 1370q18 4 126 34q78 22 131 26q57 4 94 4t54 -4q22 -6 104 -109q163 -203 223 -400q180 163 257 494q31 -15 80 -15q21 0 45 3q78 8 121 8q15 0 26 -1q-70 -475 -411 -776q-88 -78 -89 -79q-16 -35 -24 -178q-2 -35 -2 -70q0 -151 41 -306q-21 -4 -55 10 q-47 21 -63 25q-18 4 -116 7q-71 3 -102 27q-20 125 -20 246q0 104 15 204q2 14 15 73q9 44 10 71v6q0 178 -163 414q-72 103 -297 286z" />
<glyph unicode="Z" horiz-adv-x="1185" d="M78 10q-39 96 -39 189q0 115 59 225.5t248 299.5l396 396q-258 44 -438 44q-83 0 -150 -9q-7 32 -35 130q-22 81 -31 134q85 13 230 13q115 0 267 -8q134 -8 241 -8q159 0 255 18q34 -95 34 -188q0 -152 -91 -301q-94 -152 -323 -337q-236 -192 -284 -284 q354 -47 462 -51q17 0 83 6q25 2 41 2q20 0 28 -3q34 -12 43 -60q3 -12 6 -43q3 -29 6 -44q6 -24 34 -57q24 -28 22 -49q-114 -25 -298 -25q-104 0 -230 8q-198 13 -335 13q-126 0 -201 -11z" />
<glyph unicode="[" horiz-adv-x="577" d="M53 567q11 57 33 143q31 119 36 140q39 166 31 292q-9 124 -91 285q78 6 212 5q179 -1 218 -1q-5 -47 21 -113q24 -64 16 -118q-39 1 -136 -4q26 -120 5 -250q-12 -76 -59 -227q-92 -298 -50 -487q223 -3 203 -232h-377q-114 287 -62 567z" />
<glyph unicode="\" horiz-adv-x="794" d="M31 1431q28 -4 105 1q69 6 103 -5q36 -12 104 -109q149 -212 151 -472q1 -41 -8 -135q-8 -84 -5 -137q10 -154 96 -325q28 -56 81 -129q68 -94 83 -118q-29 3 -106 -1q-66 -4 -102 6q-93 24 -169 212q-70 174 -78 303q-3 54 3 177q5 123 2 178q-11 162 -103 322 q-31 54 -81 125q-72 101 -76 107z" />
<glyph unicode="]" horiz-adv-x="580" d="M32 224q80 16 145 12q-26 118 -7 247q11 77 56 228q90 305 55 495q-112 -14 -168 63q-51 67 -35 165h381q96 -304 58 -547q-8 -50 -62 -267q-39 -159 -38 -259q3 -165 83 -361h-414q-4 39 -28 111q-23 67 -26 113z" />
<glyph unicode="^" horiz-adv-x="646" d="M35 1043q6 141 76 259q5 8 141 191q46 61 73 157q2 0 2 -3q80 -87 125 -287q24 -105 55 -152q16 -24 48 -54q41 -39 52 -51q-22 -15 -75 -23q-64 -10 -82 -17q-115 117 -138 285q-40 -26 -71 -78q-16 -28 -51 -110q-26 -60 -35 -67q-10 -8 -27 -8q-23 -1 -28 -2 q-13 -3 -32 -19q-19 -17 -33 -21z" />
<glyph unicode="_" horiz-adv-x="1024" d="M-6 105q143 42 237 47q62 3 140 -6q45 -5 140 -21q186 -30 278 -24q51 3 117 25q17 5 55 19q35 12 54 18q8 -38 7 -105q-2 -90 -1 -109q-99 -36 -231 -39q-111 -3 -268 17q-217 27 -256 28q-131 4 -201 -50q-48 27 -57 92q-1 5 -5 55q-2 33 -9 53z" />
<glyph unicode="`" horiz-adv-x="635" d="M25 1605q19 5 56 18q39 14 58 20q72 21 138 17q79 -4 87 -7q29 -10 51 -68q30 -79 38 -91q20 -29 68 -48q52 -21 67 -38q-122 -44 -137 -47q-87 -18 -139 30q-18 16 -49 79q-28 56 -62 76q-32 20 -83 31q-62 15 -93 28z" />
<glyph unicode="a" d="M39 5q46 484 237 771q27 40 104 149q67 93 103 151q113 180 150 350q34 8 78 8q27 0 59 -3q107 -10 144 -10h6q124 -249 192 -781q24 -184 136 -353q41 -62 211 -262q-35 1 -70 1q-122 0 -247 -16q-80 -10 -97 -10h-4q-28 8 -110 156q-21 38 -86 182q-279 64 -408 90 q-92 -142 -92 -339q0 -21 1 -43h-12q-74 0 -295 -41zM583 690q103 -28 191 -60q-11 232 -30 282q-24 -42 -80 -111q-58 -72 -81 -111z" />
<glyph unicode="b" horiz-adv-x="1038" d="M52 452q6 136 57 467q14 95 14 181q0 177 -60 319q226 15 352 15q44 0 76 -2q247 -14 375 -109q69 -51 102 -145q24 -67 25 -140q0 -23 -3 -47q-9 -101 -57 -178q-53 -84 -138 -116q15 -22 57 -74q40 -48 59 -80q53 -85 54 -184q0 -20 -3 -41q-14 -139 -128 -225 q-110 -82 -271 -83q-41 0 -113 6q-96 7 -119 8q-28 2 -54 2q-103 0 -163 -26q-64 157 -64 378q0 36 2 74zM351 318q15 -1 63 -6q44 -4 69 -5h4q77 0 101 36q17 25 17 56q0 58 -60 134q-85 110 -159 118q-36 -170 -36 -297q0 -18 1 -36zM452 899q47 -13 86 -13q48 0 84 19 q63 32 63 101q0 7 -1 14q-5 65 -72 97q-39 18 -140 34q1 -6 0 -16q1 -54 -20 -236z" />
<glyph unicode="c" horiz-adv-x="1285" d="M62 807q23 163 88 296q69 140 169 207q68 47 157 84q97 40 234 40q54 0 113 -6q63 -6 185 -26q130 -21 191 -28q35 -157 35 -314q0 -20 -1 -40q-56 2 -290 93q-109 42 -197 42q-64 0 -118 -22q-163 -68 -230 -305q-27 -96 -28 -179q0 -125 62 -224q93 -150 326 -150h12 q220 3 394 121q-1 6 6 -150q4 -88 33 -121q-192 -125 -436 -125q-58 0 -119 7q-314 37 -472 231q-80 99 -110 257q-15 79 -15 164q0 72 11 148z" />
<glyph unicode="d" horiz-adv-x="1304" d="M53 579q6 70 26 217q19 142 25 214q4 55 4 105q0 174 -51 293q68 2 167 11q107 10 167 13q42 2 82 2q340 0 551 -151q237 -170 237 -487q0 -29 -2 -60q-12 -177 -99 -342q-83 -156 -200 -242q-105 -76 -274 -86q-28 -2 -68 -2t-92 2q-132 3 -179 3q-171 -1 -245 -69 q-56 208 -56 426q0 76 7 153zM342 353q45 -1 113 -9q83 -9 104 -11q18 -1 34 -1q89 0 146 36q118 74 170 286q22 88 22 162q0 106 -45 184q-50 87 -170 127q-93 31 -261 40q-5 -126 -64 -400q-49 -229 -50 -386q1 -14 1 -28z" />
<glyph unicode="e" horiz-adv-x="1035" d="M46 512q6 80 44 276q35 177 37 277v7q0 122 -66 353q81 9 203 9q100 0 228 -6q134 -6 238 -6q120 0 198 8q6 -44 31 -159q21 -99 25 -150q-358 10 -507 35v-25q0 -135 -20 -213q46 -7 208 -62q94 -32 178 -32q23 0 45 2q-13 -44 -36 -136q-22 -93 -35 -137q-19 -1 -39 -1 q-94 0 -190 28q7 -2 -197 69q-41 -102 -41 -295v-35q351 -37 507 -37q40 0 66 2q10 -43 36 -139l35 -140l-446 10q-40 1 -117 6t-114 6h-16q-118 0 -194 -27q-65 192 -65 406q0 52 4 106z" />
<glyph unicode="f" horiz-adv-x="1046" d="M54 507q6 93 43 262q37 171 42 246q2 25 2 52q0 158 -67 350q64 17 181 17q69 0 157 -6q189 -14 289 -14q44 0 71 3q104 10 115 10h1q48 -17 60 -76q3 -18 5 -54q3 -40 5 -56q4 -23 24 -64q18 -35 16 -57q-302 4 -517 35v-17q0 -174 -20 -239q32 -3 112 -38 q82 -36 129 -42q14 -2 39 -1q28 0 39 -1q44 -3 63 -33q15 -24 15 -60q0 -25 -8 -56q-33 -138 -32 -130q-21 -1 -41 -1q-93 0 -190 29q-18 5 -97 32q-59 20 -99 30q-32 -98 -32 -225q0 -161 52 -368q-25 0 -82 1h-30q-27 0 -44 -1q-80 -3 -121 -35q-84 172 -84 407 q0 49 4 100z" />
<glyph unicode="g" horiz-adv-x="1251" d="M46 531q-12 74 -12 148q0 186 78 365q110 252 339 349q98 42 238 42q55 0 117 -7q63 -7 187 -28q125 -20 185 -27q31 -143 31 -302q0 -30 -1 -61q-52 12 -232 88q-138 59 -237 59h-3q-148 -1 -253 -123q-97 -112 -120 -275q-8 -56 -8 -106q0 -163 85 -268 q101 -125 294 -125q32 0 66 3q15 261 59 378h324q-38 -147 -38 -293q0 -136 33 -272q-223 -76 -441 -76q-24 0 -47 1q-258 10 -421 129q-180 131 -223 401z" />
<glyph unicode="h" horiz-adv-x="1221" d="M49 1402q361 7 361 10h-1q43 -132 43 -286q0 -87 -14 -181q65 -16 208 -60q131 -42 210 -58q31 106 31 243q0 146 -35 328h153h-1q76 4 118 34h10q55 -209 56 -410q0 -68 -7 -136q-7 -77 -29 -227q-21 -146 -27 -217q-4 -53 -5 -103q0 -176 56 -305q-15 1 -34 1 q-57 0 -150 -9q-42 -4 -80 -4q-52 0 -95 8q-47 137 -47 290q0 116 27 241q-63 13 -206 60q-127 41 -212 53q-37 -142 -37 -303q0 -137 27 -287q-30 -26 -135 -39q-102 -13 -130 -45q-63 185 -63 413q0 138 23 291q39 260 43 357q1 20 1 39q0 177 -59 302z" />
<glyph unicode="i" horiz-adv-x="560" d="M57 411v9q0 100 62 328q57 209 57 343q0 15 -1 29q-7 122 -77 298q1 8 -5 10q52 6 142 6h26q97 -1 143 -1h33q71 -168 71 -376q0 -123 -25 -260q-10 -56 -41 -150q-32 -99 -41 -143q-12 -56 -12 -114q0 -71 18 -145q18 -71 86 -239q-54 -6 -144 -6h-27q-98 1 -144 1h-34 q-84 277 -87 410z" />
<glyph unicode="j" horiz-adv-x="963" d="M56 73q25 -3 169 -52q68 -23 124 -23q29 0 54 6q8 24 27 272q7 94 65 251q65 177 79 251q13 75 13 157q0 217 -93 483q-4 0 -6 16h168h168q95 -226 95 -489q0 -79 -9 -162q-10 -95 -64 -273q-52 -173 -59 -255q-23 -289 -30 -320q-34 -151 -151 -208q-93 -46 -220 -46 q-79 0 -245 24q-40 88 -85 368z" />
<glyph unicode="k" horiz-adv-x="1454" d="M54 493q6 83 28 231q26 173 33 236q8 78 8 146q0 174 -53 287q75 41 316 41h44q41 -180 41 -326q0 -72 -10 -137q286 188 386 442h160h148q-98 -399 -509 -679q180 -522 766 -699q-295 -48 -432 -57q-90 -6 -123 -6q-12 0 -16 1q-37 9 -144 118q-161 165 -318 463 q-22 -64 -23 -164q0 -53 7 -116q10 -96 10 -163.5t-10 -106.5q-7 1 -19 1q-34 0 -110 -8q-26 -3 -48 -3q-52 0 -85 15q-50 218 -50 402q0 42 3 82z" />
<glyph unicode="l" horiz-adv-x="1060" d="M67 589q8 64 34 210q24 137 32 210q5 52 5 100q0 170 -66 283q86 42 289 42q30 0 62 -1q68 -162 68 -353q0 -31 -2 -64q-5 -91 -79 -345q-44 -152 -44 -272q0 -45 6 -85q205 -47 456 -47q53 0 108 2q-2 4 82 -244q-120 -25 -317 -25q-55 0 -117 2q-261 8 -388 8 q-53 0 -83 -1q-57 197 -57 400q0 89 11 180z" />
<glyph unicode="m" horiz-adv-x="1443" d="M39 345v28q0 123 22 324q29 256 29 432q0 167 -26 262q132 35 250 40q63 3 99.5 3t45.5 -3q35 -11 110 -170q62 -131 97 -323q26 -144 26 -266q0 -44 -3 -86q168 205 242 345q113 212 133 455q45 0 147 14q83 11 141 11h17q41 -212 41 -415q0 -106 -11 -210 q-32 -300 -32 -493q0 -160 22 -247q-119 -46 -285 -46q-22 0 -45 1q-48 140 -48 296q0 139 38 289q-191 -239 -280 -500q-192 30 -255 30h-10q-108 264 -125 635q-55 -214 -54 -409q0 -176 44 -336q-47 24 -124 24h-6q-27 0 -69 -4q-56 -5 -66 -5q-60 136 -65 324z" />
<glyph unicode="n" horiz-adv-x="1249" d="M56 1385q133 49 235 49q44 0 81 -9t91 -72q17 -19 43 -53q28 -35 37 -46q102 -119 140 -195q43 -84 87 -263q43 -177 79 -244q81 290 81 521q0 201 -61 357q41 -23 118 -23q14 0 29 1q33 2 60 2q63 0 94 -10q37 -129 36 -296v-48q-4 -106 -34 -353q-23 -184 -23 -328 q0 -215 51 -340q-229 -35 -326 -35h-5q-210 204 -291 386q-40 89 -88 246q-60 196 -83 256q-66 -201 -80 -430q-4 -59 -4 -115q0 -187 44 -338q-37 22 -106 22q-15 0 -33 -1q-29 -2 -54 -2q-62 0 -93 11q-34 143 -34 334q0 160 24 353q35 276 37 343q1 18 1 35 q0 165 -53 285z" />
<glyph unicode="o" horiz-adv-x="1385" d="M55 801q21 157 86 289q68 136 167 213q143 110 328 127q43 4 84 4q281 0 454 -193q172 -191 171 -496q0 -44 -3 -89q-14 -184 -106 -344q-90 -159 -223 -234q-136 -78 -298 -78q-75 0 -156 17q-244 50 -373 213q-140 175 -140 432q0 67 9 139zM377 504q5 -28 42 -85 q35 -53 56 -72q57 -52 159 -65q28 -4 55 -4q72 0 128 30q124 66 185 310q25 103 25 190q0 125 -53 215q-39 67 -120 104q-67 30 -141 30q-16 0 -33 -1q-68 -6 -88 -15q-87 -38 -148 -165q-58 -119 -67 -261q-6 -79 -6 -132t6 -79z" />
<glyph unicode="p" horiz-adv-x="1093" d="M48 1395q27 4 112 20q63 12 107 15q59 4 117 4q125 0 247 -19q211 -33 292 -112q119 -114 124 -315v-20q0 -188 -109 -316q-85 -101 -242 -133q-61 -13 -122 -13q-99 0 -200 34q-19 -64 -19 -158q0 -151 49 -381h-29q-40 0 -124 -1h-23q-78 0 -124 6q-58 128 -58 318 q0 76 9 162q8 72 37 256q26 161 33 251q3 34 3 68q0 184 -80 334zM435 830q24 -2 85 -21q38 -11 68 -11q10 0 20 1q78 12 112 109q13 38 13 71q0 54 -34 95q-33 41 -97 55q3 -1 -132 16q5 -28 5 -63q0 -98 -40 -252z" />
<glyph unicode="q" horiz-adv-x="1540" d="M57 534q-10 66 -10 132q0 107 26 217q42 179 141 314q104 142 244 197q102 40 219 40q77 0 160 -17q193 -39 310 -141q199 -171 217 -473q2 -30 2 -59q0 -190 -79 -359q-87 -187 -243 -297q138 -51 318 -51q67 0 140 7q2 -12 -44 -74q-8 -10 -29 -36q-20 -23 -30 -38 q-6 -8 -24 -37t-30 -45q-39 -55 -69 -61h-3q-25 0 -170 40q-275 75 -429 207q-312 10 -488 226q-101 126 -129 308zM384 542q13 -120 106 -196q84 -68 197 -68q20 0 42 2q142 17 238 183q87 151 87 325q-1 169 -102 278q-90 96 -222 96q-27 0 -56 -4q-66 -10 -103 -35 q-94 -62 -150 -231q-42 -128 -42 -258q0 -46 5 -92z" />
<glyph unicode="r" horiz-adv-x="1283" d="M42 362q2 115 32 348q25 201 25 357q0 201 -42 324q183 43 352 43q106 0 207 -17q305 -51 381 -247q32 -82 32 -162q0 -98 -48 -195q-85 -171 -255 -206q62 -176 207 -317q104 -101 300 -226q-175 -55 -251 -60q-58 -4 -101 -4q-64 0 -95 9q-34 10 -131 121 q-148 169 -231 397q-2 6 -5 23q-4 17 -7 25q-10 29 -38 27q-35 -99 -35 -231q0 -158 50 -362q-49 16 -120 16h-23t-77 -4q-48 -2 -82 -2q-45 141 -45 320v23zM429 878q8 0 106 -16q20 -3 38 -3q38 0 67 14q40 19 59 65q13 32 13 65q0 8 -1 16q-8 67 -95 105q-69 31 -148 31 h-14v-21q0 -84 -25 -256z" />
<glyph unicode="s" horiz-adv-x="1016" d="M33 446q71 -8 210 -81q142 -75 217 -86q21 -3 40 -3q42 0 73 14q54 25 54 89q0 41 -33 81q-11 14 -35 38q-29 29 -40 42q-26 28 -65 75q-47 55 -58 67q-7 9 -82 88q-49 53 -76 91q-72 100 -72 216v18q6 146 109 240q101 91 259 99h25q92 0 196 -25q16 -4 102 -27 q64 -18 109 -27q-4 -18 -4 -46q0 -48 11 -126q5 -39 5 -72q0 -60 -17 -100q-30 11 -157 78q-99 52 -172 60q-13 1 -25 1q-34 0 -62 -10q-41 -16 -45 -45q-1 -4 0 -9q0 -48 73 -130q26 -30 65 -67q53 -50 48 -45l158 -158q87 -99 112 -191q14 -47 14 -107q0 -31 -4 -65 q-12 -123 -102 -203q-81 -73 -214 -101q-87 -19 -175 -19q-177 0 -354 78q-8 31 -36 192q-20 120 -52 176z" />
<glyph unicode="t" horiz-adv-x="1282" d="M48 1293q-6 28 -6 52q0 34 11 62q121 27 312 27q115 0 256 -10q210 -15 361 -15q141 0 231 13q3 -20 15 -72q11 -48 15 -76q5 -33 5 -63q0 -52 -15 -91q-184 -8 -278 -8q-67 0 -87 4q1 -18 1 -36q0 -135 -58 -314q-82 -251 -92 -322q-3 -26 -3 -59q0 -131 53 -385 q-48 29 -161 44q-136 17 -175 30q-35 112 -35 245q0 142 40 306q105 436 109 535q-80 19 -197 19q-21 0 -43 -1q-43 -2 -124 -7q-83 -5 -120 -6v13q0 42 -15 115z" />
<glyph unicode="u" horiz-adv-x="1176" d="M38 455q-2 18 -2 41q0 117 43 360q25 144 25 252q0 86 -16 150q-5 21 -24 68q-19 46 -26 71q83 37 265 37q44 0 93 -2q44 -118 44 -274t-44 -351l-48 -205q-8 -51 -9 -93q0 -59 17 -99q28 -72 126 -113q53 -22 100 -22q46 0 86 21q53 28 80 155q7 35 18 109q10 69 16 98 q6 26 20 61q16 39 20 53q28 102 28 239q0 35 -2 73q-3 68 -31 298q68 41 209 41q26 0 54 -1q46 -148 46 -366t-46 -507q-34 -213 -38 -230q-28 -120 -86 -177q-79 -77 -211 -115q-94 -27 -185 -27q-30 0 -60 3q-188 20 -312 136q-132 122 -150 316z" />
<glyph unicode="v" horiz-adv-x="1373" d="M40 1375q29 5 113 29q73 22 119 26q54 4 89 4t50 -4q44 -13 129 -159q143 -247 143 -683v-24q59 43 143 163q228 323 248 688q29 -12 81 -12q21 0 47 2t48 2q54 0 86 -12q-4 -377 -218 -737q-24 -41 -94 -147q-61 -93 -93 -151q-100 -181 -114 -360q-35 26 -135 36 q-108 11 -142 28q-141 276 -169 619q-30 380 -207 573q-11 12 -66 57q-43 35 -58 62z" />
<glyph unicode="w" horiz-adv-x="1687" d="M32 1355q354 48 348 48q143 -219 170 -663q210 286 266 653q253 -29 275 -29h1q71 -285 71 -542q0 -129 -18 -251q171 276 217 590q25 165 73 194q19 11 48 11q37 0 49 3q26 7 55 31q37 30 51 37q5 1 5 -5q1 -20 1 -41q0 -328 -151 -714q-269 -689 -266 -677h-18 q-220 0 -282 24q-89 251 -89 495q0 104 16 207q-117 -190 -155 -282q-68 -164 -68 -343q0 -19 1 -38h-276q-67 184 -116 692q-36 369 -208 600z" />
<glyph unicode="x" horiz-adv-x="1496" d="M34 1419q39 -1 77 -1q135 0 268 11q54 4 86.5 4.5t43.5 -4.5q12 -4 96 -95q147 -160 215 -340q74 67 134 188q28 55 96 227q31 -10 75 -10q23 0 49 3q71 8 116 8q16 0 30 -1q-61 -404 -405 -740q116 -395 530 -616q-50 -14 -230 -35q-152 -18 -214 -18q-25 0 -36 3 q-22 6 -100 95q-103 118 -220 360q-155 -146 -241 -440q-32 13 -83 13q-20 0 -43 -2q-76 -7 -117 -7q-16 0 -27 1q28 243 149 442q94 154 272 319q-50 198 -214 370q-52 54 -307 265z" />
<glyph unicode="y" horiz-adv-x="1329" d="M22 1370q18 4 126 34q78 22 131 26q57 4 94 4t54 -4q22 -6 104 -109q163 -203 223 -400q180 163 257 494q31 -15 80 -15q21 0 45 3q78 8 121 8q15 0 26 -1q-70 -475 -411 -776q-88 -78 -89 -79q-16 -35 -24 -178q-2 -35 -2 -70q0 -151 41 -306q-21 -4 -55 10 q-47 21 -63 25q-18 4 -116 7q-71 3 -102 27q-20 125 -20 246q0 104 15 204q2 14 15 73q9 44 10 71v6q0 178 -163 414q-72 103 -297 286z" />
<glyph unicode="z" horiz-adv-x="1185" d="M78 10q-39 96 -39 189q0 115 59 225.5t248 299.5l396 396q-258 44 -438 44q-83 0 -150 -9q-7 32 -35 130q-22 81 -31 134q85 13 230 13q115 0 267 -8q134 -8 241 -8q159 0 255 18q34 -95 34 -188q0 -152 -91 -301q-94 -152 -323 -337q-236 -192 -284 -284 q354 -47 462 -51q17 0 83 6q25 2 41 2q20 0 28 -3q34 -12 43 -60q3 -12 6 -43q3 -29 6 -44q6 -24 34 -57q24 -28 22 -49q-114 -25 -298 -25q-104 0 -230 8q-198 13 -335 13q-126 0 -201 -11z" />
<glyph unicode="{" horiz-adv-x="4378" d="M75 453q47 -63 56 -163q13 -137 32 -187h74q-3 77 60 179q-14 -93 20 -189q18 -7 81 -7q0 -3 72 183q44 111 41 205q0 1 -1 1q-4 -2 -14 -10q-8 -7 -15 -8q-3 -1 -14 -1q-7 0 -12 -3q-13 -8 -20 -53q-13 -85 -59 -159q15 99 -14 214q-4 0 -75 8q-15 -99 -72 -177 q-7 121 -46 180q1 0 -94 -13zM77 905q-22 -196 18 -288q90 6 113 -6q-40 144 4 317q7 -158 53 -270q24 1 113 -13q38 111 119 213q-34 -136 4 -249q83 -3 141 19q-21 81 4 315q14 128 -13 266q-26 0 -67 -5q-43 -6 -62 -6q-9 -103 -57 -193q-32 -60 -103 -147 q13 152 -51 287q-32 67 -47 72q-8 3 -61 0q-50 -2 -107 -17q23 -83 -1 -295zM545 312q-12 -94 35 -153q34 -43 100 -57q68 -14 121 17q36 20 60 62q24 43 28 92q7 98 -45 156q-53 59 -144 51q-49 -5 -87 -34q-56 -43 -68 -134zM631 232q-3 15 0 57q2 38 18 70q16 33 40 44 q5 2 23 4q55 4 79 -36q24 -41 7 -108q-16 -65 -49 -83q-21 -11 -49 -7q-27 4 -43 18q-22 19 -26 41zM699 610q102 19 130 17q-5 95 38 162q54 -11 172 -39q27 -60 36 -76q35 -63 47 -66q3 -1 43 4q67 9 134 6q-72 84 -90 111q-47 71 -57 149q-29 224 -81 330q-14 -1 -63 4 q-35 3 -58 -2q-16 -72 -64 -148q-15 -24 -43 -64q-33 -46 -44 -63q-81 -121 -100 -325zM929 899q9 17 34 47q24 29 34 47q8 -21 12 -119q-37 13 -80 25zM938 312q-13 -94 35 -153q34 -43 99 -57q69 -14 122 17q35 20 60 62q24 43 28 92q7 98 -45 156q-53 59 -144 51 q-50 -5 -88 -34q-55 -43 -67 -134zM1024 232q-3 15 0 57q2 38 18 70q16 33 39 44q6 2 24 4q55 4 78 -36q24 -41 8 -108q-16 -65 -49 -83q-21 -11 -49 -7t-43 18q-22 19 -26 41zM1311 251q-7 -79 13 -154q20 18 66 18q12 0 47 -1q28 0 43 1q45 2 73 23q73 53 80 155 q7 97 -62 146q-63 46 -170 40q-15 -1 -44 -3q-27 -3 -45 -3q18 -41 13 -106q-2 -20 -7 -58q-5 -39 -7 -58zM1335 1196q25 -56 22 -136q-1 -28 -16 -145q-22 -179 4 -291q19 -7 63 -4q39 2 59 -9q-50 171 17 374q9 -25 35 -108q20 -67 37 -104q35 -78 123 -164q41 -1 141 15 q-36 89 -12 283q25 205 -1 295q-19 6 -65 4q-42 -2 -63 9q57 -142 -8 -372q-15 28 -34 103q-18 76 -36 112q-17 32 -60 83q-59 69 -72 72q-54 13 -134 -17zM1388 191q-1 44 13 111q16 73 17 107q93 -6 116 -45q20 -35 6 -93q-14 -56 -46 -76q-18 -11 -48 -9q-5 0 -27 3 q-19 2 -31 2zM1656 308q-14 -97 30 -151q42 -52 126 -62t148 32q-8 8 -9 32q-2 42 -2 40q-46 -31 -105 -32q-64 -1 -90 40q-27 43 -9 107q18 63 62 81q34 14 83 -5q63 -24 78 -25q1 47 -9 94q-17 2 -51 8q-33 5 -50 7q-56 6 -92 -9q-24 -10 -42 -23q-55 -37 -68 -134z M1872 957q-20 -152 57 -248q56 -70 162 -92q111 -23 197 26q58 33 97 102q40 69 46 149q12 159 -73 254q-86 96 -233 82q-81 -7 -143 -55q-90 -70 -110 -218zM2009 219q5 -51 40 -83q32 -31 82 -36q75 -8 120 36q19 19 33 108q24 152 0 230q-48 3 -69 -10q14 -116 1 -161 q-1 -4 -5 -14t-5 -16q-2 -8 -5 -26q-3 -20 -5 -29q-7 -34 -21 -41q-21 -11 -49 0q-25 11 -33 30q-9 22 10 105q24 103 0 165q-67 3 -94 -9q2 -7 7 -19t6 -18q10 -38 -2 -106q-14 -77 -11 -106zM2012 828q-5 23 0 92q4 61 29 113q27 55 64 72q9 4 39 6q40 4 75 -12t52 -45 q39 -67 12 -176q-26 -106 -80 -135q-33 -18 -79 -11q-44 6 -70 28q-35 32 -42 68zM2327 441q4 -22 4 -34q107 4 128 -1q-1 -26 -29 -142q-21 -84 -1 -146q10 -3 46 -8q30 -4 43 -12q-18 85 -13 118q2 19 24 86q18 53 15 92q13 -2 97 2q6 15 -5 80q-50 -8 -157 0 q-100 7 -151 -4q-5 -13 -1 -31zM2495 860q-15 -124 20 -243q42 2 197 -3q117 -4 181 10q-35 104 -34 102q-132 -5 -236 19q-10 61 16 149q31 106 33 144q5 96 -28 175q-105 3 -146 -17q35 -61 25 -161q-3 -30 -13 -87q-11 -62 -15 -88zM2681 441q5 -22 4 -34q108 4 129 -1 q-1 -26 -29 -142q-21 -84 -2 -146q11 -3 47 -8q30 -4 42 -12q-17 85 -13 118q3 19 25 86q17 53 15 92q13 -2 97 2q5 15 -6 80q-49 -8 -157 0q-99 7 -150 -4q-5 -13 -2 -31zM2926 827q-9 -114 25 -215q28 10 185 6q189 -4 187 -4q-4 22 -14 59q-11 40 -15 58q-56 -5 -241 15 q-1 92 17 138q125 -43 179 -40q6 18 15 57t15 58q-44 -5 -94 12q-68 23 -87 26q9 36 9 100q62 -11 212 -15q-1 22 -10 63q-11 48 -13 67q-62 -6 -183 -1q-119 6 -181 -1q29 -100 28 -151q-1 -42 -16 -117q-16 -81 -18 -115zM3032 242q-5 -70 16 -132q17 6 114 4 q116 -3 115 -2q-3 13 -9 36q-7 24 -9 36q-35 -4 -148 9q-2 56 10 85q77 -27 110 -25q3 11 9 35l9 36q-26 -3 -57 7q-42 14 -54 16q6 22 5 62q39 -7 131 -9q-1 13 -6 39q-7 29 -8 40q-38 -3 -113 0q-73 4 -111 -1q18 -61 17 -93q-1 -26 -10 -71q-9 -51 -11 -72zM3310 469 q19 -57 4 -177q-15 -122 4 -180q72 -1 78 -3q-24 98 -4 154q8 1 10 -7q1 -2 2 -6q1 -5 1 -6q22 -59 61 -104q25 -29 34 -31q13 -4 51 -1q19 1 65 15q-106 68 -132 142q44 9 67 54q22 45 4 92q-20 51 -100 65q-68 11 -145 -7zM3366 1159q8 -37 7 -55q174 6 208 -2 q-1 -43 -47 -231q-33 -137 -2 -237q17 -6 75 -13q49 -7 70 -19q-29 137 -21 191q4 31 39 139q28 87 24 150q22 -4 158 3q10 26 4 66q-2 12 -6 32q-5 23 -7 31q-80 -11 -255 1q-161 12 -245 -7q-8 -21 -2 -49zM3407 335q7 52 6 72q23 1 42 -7q23 -10 25 -28q3 -28 -18 -38 q1 1 -55 1zM3629 193q7 -15 5 -43q-1 -32 2 -44q14 3 48 1q29 -1 43 7q-1 8 0 45q1 29 -3 43q-11 -3 -48 -2q-32 1 -47 -7zM3769 242q-6 -70 15 -132q17 6 114 4q116 -3 115 -2q-2 13 -9 36q-7 25 -9 36q-34 -4 -148 9q-1 56 11 85q76 -27 110 -25q3 11 9 35q5 24 9 36 q-27 -3 -58 7q-42 14 -53 16q5 22 5 62q38 -7 131 -9q-1 13 -7 39q-6 29 -8 40q-38 -3 -112 0q-73 4 -112 -1q18 -61 17 -93q0 -26 -9 -71q-10 -51 -11 -72zM3918 827q-8 -114 26 -215q28 10 185 6q189 -4 187 -4q-4 22 -15 59q-11 40 -15 58q-55 -5 -240 15q-2 92 17 138 q124 -43 179 -40q5 18 14 57q10 39 15 58q-43 -5 -93 12q-68 23 -87 26q9 36 8 100q63 -11 213 -15q-2 22 -11 63q-10 48 -13 67q-61 -6 -183 -1q-118 6 -180 -1q28 -100 27 -151q0 -42 -15 -117q-16 -81 -19 -115zM4035 222q8 -16 13 -47q8 -43 10 -52q70 -31 141 -15 q78 16 84 81q3 26 -2 46q-8 29 -72 93q-52 52 -50 66q3 18 35 15q20 -2 46 -16q34 -18 42 -21q7 17 3 46q-4 33 -2 46q-105 21 -115 21q-42 -2 -69 -27t-29 -64q-2 -33 19 -62q-2 3 42 -48q3 -3 16 -18q10 -12 17 -20q29 -31 29 -43q0 -32 -45 -26q-20 3 -57 23 q-37 19 -56 22z" />
<glyph unicode="|" horiz-adv-x="4378" d="M75 453q47 -63 56 -163q13 -137 32 -187h74q-3 77 60 179q-14 -93 20 -189q18 -7 81 -7q0 -3 72 183q44 111 41 205q0 1 -1 1q-4 -2 -14 -10q-8 -7 -15 -8q-3 -1 -14 -1q-7 0 -12 -3q-13 -8 -20 -53q-13 -85 -59 -159q15 99 -14 214q-4 0 -75 8q-15 -99 -72 -177 q-7 121 -46 180q1 0 -94 -13zM77 905q-22 -196 18 -288q90 6 113 -6q-40 144 4 317q7 -158 53 -270q24 1 113 -13q38 111 119 213q-34 -136 4 -249q83 -3 141 19q-21 81 4 315q14 128 -13 266q-26 0 -67 -5q-43 -6 -62 -6q-9 -103 -57 -193q-32 -60 -103 -147 q13 152 -51 287q-32 67 -47 72q-8 3 -61 0q-50 -2 -107 -17q23 -83 -1 -295zM545 312q-12 -94 35 -153q34 -43 100 -57q68 -14 121 17q36 20 60 62q24 43 28 92q7 98 -45 156q-53 59 -144 51q-49 -5 -87 -34q-56 -43 -68 -134zM631 232q-3 15 0 57q2 38 18 70q16 33 40 44 q5 2 23 4q55 4 79 -36q24 -41 7 -108q-16 -65 -49 -83q-21 -11 -49 -7q-27 4 -43 18q-22 19 -26 41zM699 610q102 19 130 17q-5 95 38 162q54 -11 172 -39q27 -60 36 -76q35 -63 47 -66q3 -1 43 4q67 9 134 6q-72 84 -90 111q-47 71 -57 149q-29 224 -81 330q-14 -1 -63 4 q-35 3 -58 -2q-16 -72 -64 -148q-15 -24 -43 -64q-33 -46 -44 -63q-81 -121 -100 -325zM929 899q9 17 34 47q24 29 34 47q8 -21 12 -119q-37 13 -80 25zM938 312q-13 -94 35 -153q34 -43 99 -57q69 -14 122 17q35 20 60 62q24 43 28 92q7 98 -45 156q-53 59 -144 51 q-50 -5 -88 -34q-55 -43 -67 -134zM1024 232q-3 15 0 57q2 38 18 70q16 33 39 44q6 2 24 4q55 4 78 -36q24 -41 8 -108q-16 -65 -49 -83q-21 -11 -49 -7t-43 18q-22 19 -26 41zM1311 251q-7 -79 13 -154q20 18 66 18q12 0 47 -1q28 0 43 1q45 2 73 23q73 53 80 155 q7 97 -62 146q-63 46 -170 40q-15 -1 -44 -3q-27 -3 -45 -3q18 -41 13 -106q-2 -20 -7 -58q-5 -39 -7 -58zM1335 1196q25 -56 22 -136q-1 -28 -16 -145q-22 -179 4 -291q19 -7 63 -4q39 2 59 -9q-50 171 17 374q9 -25 35 -108q20 -67 37 -104q35 -78 123 -164q41 -1 141 15 q-36 89 -12 283q25 205 -1 295q-19 6 -65 4q-42 -2 -63 9q57 -142 -8 -372q-15 28 -34 103q-18 76 -36 112q-17 32 -60 83q-59 69 -72 72q-54 13 -134 -17zM1388 191q-1 44 13 111q16 73 17 107q93 -6 116 -45q20 -35 6 -93q-14 -56 -46 -76q-18 -11 -48 -9q-5 0 -27 3 q-19 2 -31 2zM1656 308q-14 -97 30 -151q42 -52 126 -62t148 32q-8 8 -9 32q-2 42 -2 40q-46 -31 -105 -32q-64 -1 -90 40q-27 43 -9 107q18 63 62 81q34 14 83 -5q63 -24 78 -25q1 47 -9 94q-17 2 -51 8q-33 5 -50 7q-56 6 -92 -9q-24 -10 -42 -23q-55 -37 -68 -134z M1872 957q-20 -152 57 -248q56 -70 162 -92q111 -23 197 26q58 33 97 102q40 69 46 149q12 159 -73 254q-86 96 -233 82q-81 -7 -143 -55q-90 -70 -110 -218zM2009 219q5 -51 40 -83q32 -31 82 -36q75 -8 120 36q19 19 33 108q24 152 0 230q-48 3 -69 -10q14 -116 1 -161 q-1 -4 -5 -14t-5 -16q-2 -8 -5 -26q-3 -20 -5 -29q-7 -34 -21 -41q-21 -11 -49 0q-25 11 -33 30q-9 22 10 105q24 103 0 165q-67 3 -94 -9q2 -7 7 -19t6 -18q10 -38 -2 -106q-14 -77 -11 -106zM2012 828q-5 23 0 92q4 61 29 113q27 55 64 72q9 4 39 6q40 4 75 -12t52 -45 q39 -67 12 -176q-26 -106 -80 -135q-33 -18 -79 -11q-44 6 -70 28q-35 32 -42 68zM2327 441q4 -22 4 -34q107 4 128 -1q-1 -26 -29 -142q-21 -84 -1 -146q10 -3 46 -8q30 -4 43 -12q-18 85 -13 118q2 19 24 86q18 53 15 92q13 -2 97 2q6 15 -5 80q-50 -8 -157 0 q-100 7 -151 -4q-5 -13 -1 -31zM2495 860q-15 -124 20 -243q42 2 197 -3q117 -4 181 10q-35 104 -34 102q-132 -5 -236 19q-10 61 16 149q31 106 33 144q5 96 -28 175q-105 3 -146 -17q35 -61 25 -161q-3 -30 -13 -87q-11 -62 -15 -88zM2681 441q5 -22 4 -34q108 4 129 -1 q-1 -26 -29 -142q-21 -84 -2 -146q11 -3 47 -8q30 -4 42 -12q-17 85 -13 118q3 19 25 86q17 53 15 92q13 -2 97 2q5 15 -6 80q-49 -8 -157 0q-99 7 -150 -4q-5 -13 -2 -31zM2926 827q-9 -114 25 -215q28 10 185 6q189 -4 187 -4q-4 22 -14 59q-11 40 -15 58q-56 -5 -241 15 q-1 92 17 138q125 -43 179 -40q6 18 15 57t15 58q-44 -5 -94 12q-68 23 -87 26q9 36 9 100q62 -11 212 -15q-1 22 -10 63q-11 48 -13 67q-62 -6 -183 -1q-119 6 -181 -1q29 -100 28 -151q-1 -42 -16 -117q-16 -81 -18 -115zM3032 242q-5 -70 16 -132q17 6 114 4 q116 -3 115 -2q-3 13 -9 36q-7 24 -9 36q-35 -4 -148 9q-2 56 10 85q77 -27 110 -25q3 11 9 35l9 36q-26 -3 -57 7q-42 14 -54 16q6 22 5 62q39 -7 131 -9q-1 13 -6 39q-7 29 -8 40q-38 -3 -113 0q-73 4 -111 -1q18 -61 17 -93q-1 -26 -10 -71q-9 -51 -11 -72zM3310 469 q19 -57 4 -177q-15 -122 4 -180q72 -1 78 -3q-24 98 -4 154q8 1 10 -7q1 -2 2 -6q1 -5 1 -6q22 -59 61 -104q25 -29 34 -31q13 -4 51 -1q19 1 65 15q-106 68 -132 142q44 9 67 54q22 45 4 92q-20 51 -100 65q-68 11 -145 -7zM3366 1159q8 -37 7 -55q174 6 208 -2 q-1 -43 -47 -231q-33 -137 -2 -237q17 -6 75 -13q49 -7 70 -19q-29 137 -21 191q4 31 39 139q28 87 24 150q22 -4 158 3q10 26 4 66q-2 12 -6 32q-5 23 -7 31q-80 -11 -255 1q-161 12 -245 -7q-8 -21 -2 -49zM3407 335q7 52 6 72q23 1 42 -7q23 -10 25 -28q3 -28 -18 -38 q1 1 -55 1zM3629 193q7 -15 5 -43q-1 -32 2 -44q14 3 48 1q29 -1 43 7q-1 8 0 45q1 29 -3 43q-11 -3 -48 -2q-32 1 -47 -7zM3769 242q-6 -70 15 -132q17 6 114 4q116 -3 115 -2q-2 13 -9 36q-7 25 -9 36q-34 -4 -148 9q-1 56 11 85q76 -27 110 -25q3 11 9 35q5 24 9 36 q-27 -3 -58 7q-42 14 -53 16q5 22 5 62q38 -7 131 -9q-1 13 -7 39q-6 29 -8 40q-38 -3 -112 0q-73 4 -112 -1q18 -61 17 -93q0 -26 -9 -71q-10 -51 -11 -72zM3918 827q-8 -114 26 -215q28 10 185 6q189 -4 187 -4q-4 22 -15 59q-11 40 -15 58q-55 -5 -240 15q-2 92 17 138 q124 -43 179 -40q5 18 14 57q10 39 15 58q-43 -5 -93 12q-68 23 -87 26q9 36 8 100q63 -11 213 -15q-2 22 -11 63q-10 48 -13 67q-61 -6 -183 -1q-118 6 -180 -1q28 -100 27 -151q0 -42 -15 -117q-16 -81 -19 -115zM4035 222q8 -16 13 -47q8 -43 10 -52q70 -31 141 -15 q78 16 84 81q3 26 -2 46q-8 29 -72 93q-52 52 -50 66q3 18 35 15q20 -2 46 -16q34 -18 42 -21q7 17 3 46q-4 33 -2 46q-105 21 -115 21q-42 -2 -69 -27t-29 -64q-2 -33 19 -62q-2 3 42 -48q3 -3 16 -18q10 -12 17 -20q29 -31 29 -43q0 -32 -45 -26q-20 3 -57 23 q-37 19 -56 22z" />
<glyph unicode="}" horiz-adv-x="4378" d="M75 453q47 -63 56 -163q13 -137 32 -187h74q-3 77 60 179q-14 -93 20 -189q18 -7 81 -7q0 -3 72 183q44 111 41 205q0 1 -1 1q-4 -2 -14 -10q-8 -7 -15 -8q-3 -1 -14 -1q-7 0 -12 -3q-13 -8 -20 -53q-13 -85 -59 -159q15 99 -14 214q-4 0 -75 8q-15 -99 -72 -177 q-7 121 -46 180q1 0 -94 -13zM77 905q-22 -196 18 -288q90 6 113 -6q-40 144 4 317q7 -158 53 -270q24 1 113 -13q38 111 119 213q-34 -136 4 -249q83 -3 141 19q-21 81 4 315q14 128 -13 266q-26 0 -67 -5q-43 -6 -62 -6q-9 -103 -57 -193q-32 -60 -103 -147 q13 152 -51 287q-32 67 -47 72q-8 3 -61 0q-50 -2 -107 -17q23 -83 -1 -295zM545 312q-12 -94 35 -153q34 -43 100 -57q68 -14 121 17q36 20 60 62q24 43 28 92q7 98 -45 156q-53 59 -144 51q-49 -5 -87 -34q-56 -43 -68 -134zM631 232q-3 15 0 57q2 38 18 70q16 33 40 44 q5 2 23 4q55 4 79 -36q24 -41 7 -108q-16 -65 -49 -83q-21 -11 -49 -7q-27 4 -43 18q-22 19 -26 41zM699 610q102 19 130 17q-5 95 38 162q54 -11 172 -39q27 -60 36 -76q35 -63 47 -66q3 -1 43 4q67 9 134 6q-72 84 -90 111q-47 71 -57 149q-29 224 -81 330q-14 -1 -63 4 q-35 3 -58 -2q-16 -72 -64 -148q-15 -24 -43 -64q-33 -46 -44 -63q-81 -121 -100 -325zM929 899q9 17 34 47q24 29 34 47q8 -21 12 -119q-37 13 -80 25zM938 312q-13 -94 35 -153q34 -43 99 -57q69 -14 122 17q35 20 60 62q24 43 28 92q7 98 -45 156q-53 59 -144 51 q-50 -5 -88 -34q-55 -43 -67 -134zM1024 232q-3 15 0 57q2 38 18 70q16 33 39 44q6 2 24 4q55 4 78 -36q24 -41 8 -108q-16 -65 -49 -83q-21 -11 -49 -7t-43 18q-22 19 -26 41zM1311 251q-7 -79 13 -154q20 18 66 18q12 0 47 -1q28 0 43 1q45 2 73 23q73 53 80 155 q7 97 -62 146q-63 46 -170 40q-15 -1 -44 -3q-27 -3 -45 -3q18 -41 13 -106q-2 -20 -7 -58q-5 -39 -7 -58zM1335 1196q25 -56 22 -136q-1 -28 -16 -145q-22 -179 4 -291q19 -7 63 -4q39 2 59 -9q-50 171 17 374q9 -25 35 -108q20 -67 37 -104q35 -78 123 -164q41 -1 141 15 q-36 89 -12 283q25 205 -1 295q-19 6 -65 4q-42 -2 -63 9q57 -142 -8 -372q-15 28 -34 103q-18 76 -36 112q-17 32 -60 83q-59 69 -72 72q-54 13 -134 -17zM1388 191q-1 44 13 111q16 73 17 107q93 -6 116 -45q20 -35 6 -93q-14 -56 -46 -76q-18 -11 -48 -9q-5 0 -27 3 q-19 2 -31 2zM1656 308q-14 -97 30 -151q42 -52 126 -62t148 32q-8 8 -9 32q-2 42 -2 40q-46 -31 -105 -32q-64 -1 -90 40q-27 43 -9 107q18 63 62 81q34 14 83 -5q63 -24 78 -25q1 47 -9 94q-17 2 -51 8q-33 5 -50 7q-56 6 -92 -9q-24 -10 -42 -23q-55 -37 -68 -134z M1872 957q-20 -152 57 -248q56 -70 162 -92q111 -23 197 26q58 33 97 102q40 69 46 149q12 159 -73 254q-86 96 -233 82q-81 -7 -143 -55q-90 -70 -110 -218zM2009 219q5 -51 40 -83q32 -31 82 -36q75 -8 120 36q19 19 33 108q24 152 0 230q-48 3 -69 -10q14 -116 1 -161 q-1 -4 -5 -14t-5 -16q-2 -8 -5 -26q-3 -20 -5 -29q-7 -34 -21 -41q-21 -11 -49 0q-25 11 -33 30q-9 22 10 105q24 103 0 165q-67 3 -94 -9q2 -7 7 -19t6 -18q10 -38 -2 -106q-14 -77 -11 -106zM2012 828q-5 23 0 92q4 61 29 113q27 55 64 72q9 4 39 6q40 4 75 -12t52 -45 q39 -67 12 -176q-26 -106 -80 -135q-33 -18 -79 -11q-44 6 -70 28q-35 32 -42 68zM2327 441q4 -22 4 -34q107 4 128 -1q-1 -26 -29 -142q-21 -84 -1 -146q10 -3 46 -8q30 -4 43 -12q-18 85 -13 118q2 19 24 86q18 53 15 92q13 -2 97 2q6 15 -5 80q-50 -8 -157 0 q-100 7 -151 -4q-5 -13 -1 -31zM2495 860q-15 -124 20 -243q42 2 197 -3q117 -4 181 10q-35 104 -34 102q-132 -5 -236 19q-10 61 16 149q31 106 33 144q5 96 -28 175q-105 3 -146 -17q35 -61 25 -161q-3 -30 -13 -87q-11 -62 -15 -88zM2681 441q5 -22 4 -34q108 4 129 -1 q-1 -26 -29 -142q-21 -84 -2 -146q11 -3 47 -8q30 -4 42 -12q-17 85 -13 118q3 19 25 86q17 53 15 92q13 -2 97 2q5 15 -6 80q-49 -8 -157 0q-99 7 -150 -4q-5 -13 -2 -31zM2926 827q-9 -114 25 -215q28 10 185 6q189 -4 187 -4q-4 22 -14 59q-11 40 -15 58q-56 -5 -241 15 q-1 92 17 138q125 -43 179 -40q6 18 15 57t15 58q-44 -5 -94 12q-68 23 -87 26q9 36 9 100q62 -11 212 -15q-1 22 -10 63q-11 48 -13 67q-62 -6 -183 -1q-119 6 -181 -1q29 -100 28 -151q-1 -42 -16 -117q-16 -81 -18 -115zM3032 242q-5 -70 16 -132q17 6 114 4 q116 -3 115 -2q-3 13 -9 36q-7 24 -9 36q-35 -4 -148 9q-2 56 10 85q77 -27 110 -25q3 11 9 35l9 36q-26 -3 -57 7q-42 14 -54 16q6 22 5 62q39 -7 131 -9q-1 13 -6 39q-7 29 -8 40q-38 -3 -113 0q-73 4 -111 -1q18 -61 17 -93q-1 -26 -10 -71q-9 -51 -11 -72zM3310 469 q19 -57 4 -177q-15 -122 4 -180q72 -1 78 -3q-24 98 -4 154q8 1 10 -7q1 -2 2 -6q1 -5 1 -6q22 -59 61 -104q25 -29 34 -31q13 -4 51 -1q19 1 65 15q-106 68 -132 142q44 9 67 54q22 45 4 92q-20 51 -100 65q-68 11 -145 -7zM3366 1159q8 -37 7 -55q174 6 208 -2 q-1 -43 -47 -231q-33 -137 -2 -237q17 -6 75 -13q49 -7 70 -19q-29 137 -21 191q4 31 39 139q28 87 24 150q22 -4 158 3q10 26 4 66q-2 12 -6 32q-5 23 -7 31q-80 -11 -255 1q-161 12 -245 -7q-8 -21 -2 -49zM3407 335q7 52 6 72q23 1 42 -7q23 -10 25 -28q3 -28 -18 -38 q1 1 -55 1zM3629 193q7 -15 5 -43q-1 -32 2 -44q14 3 48 1q29 -1 43 7q-1 8 0 45q1 29 -3 43q-11 -3 -48 -2q-32 1 -47 -7zM3769 242q-6 -70 15 -132q17 6 114 4q116 -3 115 -2q-2 13 -9 36q-7 25 -9 36q-34 -4 -148 9q-1 56 11 85q76 -27 110 -25q3 11 9 35q5 24 9 36 q-27 -3 -58 7q-42 14 -53 16q5 22 5 62q38 -7 131 -9q-1 13 -7 39q-6 29 -8 40q-38 -3 -112 0q-73 4 -112 -1q18 -61 17 -93q0 -26 -9 -71q-10 -51 -11 -72zM3918 827q-8 -114 26 -215q28 10 185 6q189 -4 187 -4q-4 22 -15 59q-11 40 -15 58q-55 -5 -240 15q-2 92 17 138 q124 -43 179 -40q5 18 14 57q10 39 15 58q-43 -5 -93 12q-68 23 -87 26q9 36 8 100q63 -11 213 -15q-2 22 -11 63q-10 48 -13 67q-61 -6 -183 -1q-118 6 -180 -1q28 -100 27 -151q0 -42 -15 -117q-16 -81 -19 -115zM4035 222q8 -16 13 -47q8 -43 10 -52q70 -31 141 -15 q78 16 84 81q3 26 -2 46q-8 29 -72 93q-52 52 -50 66q3 18 35 15q20 -2 46 -16q34 -18 42 -21q7 17 3 46q-4 33 -2 46q-105 21 -115 21q-42 -2 -69 -27t-29 -64q-2 -33 19 -62q-2 3 42 -48q3 -3 16 -18q10 -12 17 -20q29 -31 29 -43q0 -32 -45 -26q-20 3 -57 23 q-37 19 -56 22z" />
<glyph unicode="~" horiz-adv-x="1014" />
<glyph unicode="&#xa1;" horiz-adv-x="549" d="M60 443q8 129 81 343q76 226 88 328q4 -6 -51 5q-8 85 -88 315h340q5 -22 39 -152q24 -93 34 -157q-124 -34 -207 -11q11 -19 87 -31q77 -12 94 -36q17 -114 -27 -270q-60 -215 -65 -256q-34 -257 98 -505q3 -1 5 -16h-340q-100 269 -88 443z" />
<glyph unicode="&#xa2;" horiz-adv-x="4378" d="M75 453q47 -63 56 -163q13 -137 32 -187h74q-3 77 60 179q-14 -93 20 -189q18 -7 81 -7q0 -3 72 183q44 111 41 205q0 1 -1 1q-4 -2 -14 -10q-8 -7 -15 -8q-3 -1 -14 -1q-7 0 -12 -3q-13 -8 -20 -53q-13 -85 -59 -159q15 99 -14 214q-4 0 -75 8q-15 -99 -72 -177 q-7 121 -46 180q1 0 -94 -13zM77 905q-22 -196 18 -288q90 6 113 -6q-40 144 4 317q7 -158 53 -270q24 1 113 -13q38 111 119 213q-34 -136 4 -249q83 -3 141 19q-21 81 4 315q14 128 -13 266q-26 0 -67 -5q-43 -6 -62 -6q-9 -103 -57 -193q-32 -60 -103 -147 q13 152 -51 287q-32 67 -47 72q-8 3 -61 0q-50 -2 -107 -17q23 -83 -1 -295zM545 312q-12 -94 35 -153q34 -43 100 -57q68 -14 121 17q36 20 60 62q24 43 28 92q7 98 -45 156q-53 59 -144 51q-49 -5 -87 -34q-56 -43 -68 -134zM631 232q-3 15 0 57q2 38 18 70q16 33 40 44 q5 2 23 4q55 4 79 -36q24 -41 7 -108q-16 -65 -49 -83q-21 -11 -49 -7q-27 4 -43 18q-22 19 -26 41zM699 610q102 19 130 17q-5 95 38 162q54 -11 172 -39q27 -60 36 -76q35 -63 47 -66q3 -1 43 4q67 9 134 6q-72 84 -90 111q-47 71 -57 149q-29 224 -81 330q-14 -1 -63 4 q-35 3 -58 -2q-16 -72 -64 -148q-15 -24 -43 -64q-33 -46 -44 -63q-81 -121 -100 -325zM929 899q9 17 34 47q24 29 34 47q8 -21 12 -119q-37 13 -80 25zM938 312q-13 -94 35 -153q34 -43 99 -57q69 -14 122 17q35 20 60 62q24 43 28 92q7 98 -45 156q-53 59 -144 51 q-50 -5 -88 -34q-55 -43 -67 -134zM1024 232q-3 15 0 57q2 38 18 70q16 33 39 44q6 2 24 4q55 4 78 -36q24 -41 8 -108q-16 -65 -49 -83q-21 -11 -49 -7t-43 18q-22 19 -26 41zM1311 251q-7 -79 13 -154q20 18 66 18q12 0 47 -1q28 0 43 1q45 2 73 23q73 53 80 155 q7 97 -62 146q-63 46 -170 40q-15 -1 -44 -3q-27 -3 -45 -3q18 -41 13 -106q-2 -20 -7 -58q-5 -39 -7 -58zM1335 1196q25 -56 22 -136q-1 -28 -16 -145q-22 -179 4 -291q19 -7 63 -4q39 2 59 -9q-50 171 17 374q9 -25 35 -108q20 -67 37 -104q35 -78 123 -164q41 -1 141 15 q-36 89 -12 283q25 205 -1 295q-19 6 -65 4q-42 -2 -63 9q57 -142 -8 -372q-15 28 -34 103q-18 76 -36 112q-17 32 -60 83q-59 69 -72 72q-54 13 -134 -17zM1388 191q-1 44 13 111q16 73 17 107q93 -6 116 -45q20 -35 6 -93q-14 -56 -46 -76q-18 -11 -48 -9q-5 0 -27 3 q-19 2 -31 2zM1656 308q-14 -97 30 -151q42 -52 126 -62t148 32q-8 8 -9 32q-2 42 -2 40q-46 -31 -105 -32q-64 -1 -90 40q-27 43 -9 107q18 63 62 81q34 14 83 -5q63 -24 78 -25q1 47 -9 94q-17 2 -51 8q-33 5 -50 7q-56 6 -92 -9q-24 -10 -42 -23q-55 -37 -68 -134z M1872 957q-20 -152 57 -248q56 -70 162 -92q111 -23 197 26q58 33 97 102q40 69 46 149q12 159 -73 254q-86 96 -233 82q-81 -7 -143 -55q-90 -70 -110 -218zM2009 219q5 -51 40 -83q32 -31 82 -36q75 -8 120 36q19 19 33 108q24 152 0 230q-48 3 -69 -10q14 -116 1 -161 q-1 -4 -5 -14t-5 -16q-2 -8 -5 -26q-3 -20 -5 -29q-7 -34 -21 -41q-21 -11 -49 0q-25 11 -33 30q-9 22 10 105q24 103 0 165q-67 3 -94 -9q2 -7 7 -19t6 -18q10 -38 -2 -106q-14 -77 -11 -106zM2012 828q-5 23 0 92q4 61 29 113q27 55 64 72q9 4 39 6q40 4 75 -12t52 -45 q39 -67 12 -176q-26 -106 -80 -135q-33 -18 -79 -11q-44 6 -70 28q-35 32 -42 68zM2327 441q4 -22 4 -34q107 4 128 -1q-1 -26 -29 -142q-21 -84 -1 -146q10 -3 46 -8q30 -4 43 -12q-18 85 -13 118q2 19 24 86q18 53 15 92q13 -2 97 2q6 15 -5 80q-50 -8 -157 0 q-100 7 -151 -4q-5 -13 -1 -31zM2495 860q-15 -124 20 -243q42 2 197 -3q117 -4 181 10q-35 104 -34 102q-132 -5 -236 19q-10 61 16 149q31 106 33 144q5 96 -28 175q-105 3 -146 -17q35 -61 25 -161q-3 -30 -13 -87q-11 -62 -15 -88zM2681 441q5 -22 4 -34q108 4 129 -1 q-1 -26 -29 -142q-21 -84 -2 -146q11 -3 47 -8q30 -4 42 -12q-17 85 -13 118q3 19 25 86q17 53 15 92q13 -2 97 2q5 15 -6 80q-49 -8 -157 0q-99 7 -150 -4q-5 -13 -2 -31zM2926 827q-9 -114 25 -215q28 10 185 6q189 -4 187 -4q-4 22 -14 59q-11 40 -15 58q-56 -5 -241 15 q-1 92 17 138q125 -43 179 -40q6 18 15 57t15 58q-44 -5 -94 12q-68 23 -87 26q9 36 9 100q62 -11 212 -15q-1 22 -10 63q-11 48 -13 67q-62 -6 -183 -1q-119 6 -181 -1q29 -100 28 -151q-1 -42 -16 -117q-16 -81 -18 -115zM3032 242q-5 -70 16 -132q17 6 114 4 q116 -3 115 -2q-3 13 -9 36q-7 24 -9 36q-35 -4 -148 9q-2 56 10 85q77 -27 110 -25q3 11 9 35l9 36q-26 -3 -57 7q-42 14 -54 16q6 22 5 62q39 -7 131 -9q-1 13 -6 39q-7 29 -8 40q-38 -3 -113 0q-73 4 -111 -1q18 -61 17 -93q-1 -26 -10 -71q-9 -51 -11 -72zM3310 469 q19 -57 4 -177q-15 -122 4 -180q72 -1 78 -3q-24 98 -4 154q8 1 10 -7q1 -2 2 -6q1 -5 1 -6q22 -59 61 -104q25 -29 34 -31q13 -4 51 -1q19 1 65 15q-106 68 -132 142q44 9 67 54q22 45 4 92q-20 51 -100 65q-68 11 -145 -7zM3366 1159q8 -37 7 -55q174 6 208 -2 q-1 -43 -47 -231q-33 -137 -2 -237q17 -6 75 -13q49 -7 70 -19q-29 137 -21 191q4 31 39 139q28 87 24 150q22 -4 158 3q10 26 4 66q-2 12 -6 32q-5 23 -7 31q-80 -11 -255 1q-161 12 -245 -7q-8 -21 -2 -49zM3407 335q7 52 6 72q23 1 42 -7q23 -10 25 -28q3 -28 -18 -38 q1 1 -55 1zM3629 193q7 -15 5 -43q-1 -32 2 -44q14 3 48 1q29 -1 43 7q-1 8 0 45q1 29 -3 43q-11 -3 -48 -2q-32 1 -47 -7zM3769 242q-6 -70 15 -132q17 6 114 4q116 -3 115 -2q-2 13 -9 36q-7 25 -9 36q-34 -4 -148 9q-1 56 11 85q76 -27 110 -25q3 11 9 35q5 24 9 36 q-27 -3 -58 7q-42 14 -53 16q5 22 5 62q38 -7 131 -9q-1 13 -7 39q-6 29 -8 40q-38 -3 -112 0q-73 4 -112 -1q18 -61 17 -93q0 -26 -9 -71q-10 -51 -11 -72zM3918 827q-8 -114 26 -215q28 10 185 6q189 -4 187 -4q-4 22 -15 59q-11 40 -15 58q-55 -5 -240 15q-2 92 17 138 q124 -43 179 -40q5 18 14 57q10 39 15 58q-43 -5 -93 12q-68 23 -87 26q9 36 8 100q63 -11 213 -15q-2 22 -11 63q-10 48 -13 67q-61 -6 -183 -1q-118 6 -180 -1q28 -100 27 -151q0 -42 -15 -117q-16 -81 -19 -115zM4035 222q8 -16 13 -47q8 -43 10 -52q70 -31 141 -15 q78 16 84 81q3 26 -2 46q-8 29 -72 93q-52 52 -50 66q3 18 35 15q20 -2 46 -16q34 -18 42 -21q7 17 3 46q-4 33 -2 46q-105 21 -115 21q-42 -2 -69 -27t-29 -64q-2 -33 19 -62q-2 3 42 -48q3 -3 16 -18q10 -12 17 -20q29 -31 29 -43q0 -32 -45 -26q-20 3 -57 23 q-37 19 -56 22z" />
<glyph unicode="&#xa3;" horiz-adv-x="4378" d="M75 453q47 -63 56 -163q13 -137 32 -187h74q-3 77 60 179q-14 -93 20 -189q18 -7 81 -7q0 -3 72 183q44 111 41 205q0 1 -1 1q-4 -2 -14 -10q-8 -7 -15 -8q-3 -1 -14 -1q-7 0 -12 -3q-13 -8 -20 -53q-13 -85 -59 -159q15 99 -14 214q-4 0 -75 8q-15 -99 -72 -177 q-7 121 -46 180q1 0 -94 -13zM77 905q-22 -196 18 -288q90 6 113 -6q-40 144 4 317q7 -158 53 -270q24 1 113 -13q38 111 119 213q-34 -136 4 -249q83 -3 141 19q-21 81 4 315q14 128 -13 266q-26 0 -67 -5q-43 -6 -62 -6q-9 -103 -57 -193q-32 -60 -103 -147 q13 152 -51 287q-32 67 -47 72q-8 3 -61 0q-50 -2 -107 -17q23 -83 -1 -295zM545 312q-12 -94 35 -153q34 -43 100 -57q68 -14 121 17q36 20 60 62q24 43 28 92q7 98 -45 156q-53 59 -144 51q-49 -5 -87 -34q-56 -43 -68 -134zM631 232q-3 15 0 57q2 38 18 70q16 33 40 44 q5 2 23 4q55 4 79 -36q24 -41 7 -108q-16 -65 -49 -83q-21 -11 -49 -7q-27 4 -43 18q-22 19 -26 41zM699 610q102 19 130 17q-5 95 38 162q54 -11 172 -39q27 -60 36 -76q35 -63 47 -66q3 -1 43 4q67 9 134 6q-72 84 -90 111q-47 71 -57 149q-29 224 -81 330q-14 -1 -63 4 q-35 3 -58 -2q-16 -72 -64 -148q-15 -24 -43 -64q-33 -46 -44 -63q-81 -121 -100 -325zM929 899q9 17 34 47q24 29 34 47q8 -21 12 -119q-37 13 -80 25zM938 312q-13 -94 35 -153q34 -43 99 -57q69 -14 122 17q35 20 60 62q24 43 28 92q7 98 -45 156q-53 59 -144 51 q-50 -5 -88 -34q-55 -43 -67 -134zM1024 232q-3 15 0 57q2 38 18 70q16 33 39 44q6 2 24 4q55 4 78 -36q24 -41 8 -108q-16 -65 -49 -83q-21 -11 -49 -7t-43 18q-22 19 -26 41zM1311 251q-7 -79 13 -154q20 18 66 18q12 0 47 -1q28 0 43 1q45 2 73 23q73 53 80 155 q7 97 -62 146q-63 46 -170 40q-15 -1 -44 -3q-27 -3 -45 -3q18 -41 13 -106q-2 -20 -7 -58q-5 -39 -7 -58zM1335 1196q25 -56 22 -136q-1 -28 -16 -145q-22 -179 4 -291q19 -7 63 -4q39 2 59 -9q-50 171 17 374q9 -25 35 -108q20 -67 37 -104q35 -78 123 -164q41 -1 141 15 q-36 89 -12 283q25 205 -1 295q-19 6 -65 4q-42 -2 -63 9q57 -142 -8 -372q-15 28 -34 103q-18 76 -36 112q-17 32 -60 83q-59 69 -72 72q-54 13 -134 -17zM1388 191q-1 44 13 111q16 73 17 107q93 -6 116 -45q20 -35 6 -93q-14 -56 -46 -76q-18 -11 -48 -9q-5 0 -27 3 q-19 2 -31 2zM1656 308q-14 -97 30 -151q42 -52 126 -62t148 32q-8 8 -9 32q-2 42 -2 40q-46 -31 -105 -32q-64 -1 -90 40q-27 43 -9 107q18 63 62 81q34 14 83 -5q63 -24 78 -25q1 47 -9 94q-17 2 -51 8q-33 5 -50 7q-56 6 -92 -9q-24 -10 -42 -23q-55 -37 -68 -134z M1872 957q-20 -152 57 -248q56 -70 162 -92q111 -23 197 26q58 33 97 102q40 69 46 149q12 159 -73 254q-86 96 -233 82q-81 -7 -143 -55q-90 -70 -110 -218zM2009 219q5 -51 40 -83q32 -31 82 -36q75 -8 120 36q19 19 33 108q24 152 0 230q-48 3 -69 -10q14 -116 1 -161 q-1 -4 -5 -14t-5 -16q-2 -8 -5 -26q-3 -20 -5 -29q-7 -34 -21 -41q-21 -11 -49 0q-25 11 -33 30q-9 22 10 105q24 103 0 165q-67 3 -94 -9q2 -7 7 -19t6 -18q10 -38 -2 -106q-14 -77 -11 -106zM2012 828q-5 23 0 92q4 61 29 113q27 55 64 72q9 4 39 6q40 4 75 -12t52 -45 q39 -67 12 -176q-26 -106 -80 -135q-33 -18 -79 -11q-44 6 -70 28q-35 32 -42 68zM2327 441q4 -22 4 -34q107 4 128 -1q-1 -26 -29 -142q-21 -84 -1 -146q10 -3 46 -8q30 -4 43 -12q-18 85 -13 118q2 19 24 86q18 53 15 92q13 -2 97 2q6 15 -5 80q-50 -8 -157 0 q-100 7 -151 -4q-5 -13 -1 -31zM2495 860q-15 -124 20 -243q42 2 197 -3q117 -4 181 10q-35 104 -34 102q-132 -5 -236 19q-10 61 16 149q31 106 33 144q5 96 -28 175q-105 3 -146 -17q35 -61 25 -161q-3 -30 -13 -87q-11 -62 -15 -88zM2681 441q5 -22 4 -34q108 4 129 -1 q-1 -26 -29 -142q-21 -84 -2 -146q11 -3 47 -8q30 -4 42 -12q-17 85 -13 118q3 19 25 86q17 53 15 92q13 -2 97 2q5 15 -6 80q-49 -8 -157 0q-99 7 -150 -4q-5 -13 -2 -31zM2926 827q-9 -114 25 -215q28 10 185 6q189 -4 187 -4q-4 22 -14 59q-11 40 -15 58q-56 -5 -241 15 q-1 92 17 138q125 -43 179 -40q6 18 15 57t15 58q-44 -5 -94 12q-68 23 -87 26q9 36 9 100q62 -11 212 -15q-1 22 -10 63q-11 48 -13 67q-62 -6 -183 -1q-119 6 -181 -1q29 -100 28 -151q-1 -42 -16 -117q-16 -81 -18 -115zM3032 242q-5 -70 16 -132q17 6 114 4 q116 -3 115 -2q-3 13 -9 36q-7 24 -9 36q-35 -4 -148 9q-2 56 10 85q77 -27 110 -25q3 11 9 35l9 36q-26 -3 -57 7q-42 14 -54 16q6 22 5 62q39 -7 131 -9q-1 13 -6 39q-7 29 -8 40q-38 -3 -113 0q-73 4 -111 -1q18 -61 17 -93q-1 -26 -10 -71q-9 -51 -11 -72zM3310 469 q19 -57 4 -177q-15 -122 4 -180q72 -1 78 -3q-24 98 -4 154q8 1 10 -7q1 -2 2 -6q1 -5 1 -6q22 -59 61 -104q25 -29 34 -31q13 -4 51 -1q19 1 65 15q-106 68 -132 142q44 9 67 54q22 45 4 92q-20 51 -100 65q-68 11 -145 -7zM3366 1159q8 -37 7 -55q174 6 208 -2 q-1 -43 -47 -231q-33 -137 -2 -237q17 -6 75 -13q49 -7 70 -19q-29 137 -21 191q4 31 39 139q28 87 24 150q22 -4 158 3q10 26 4 66q-2 12 -6 32q-5 23 -7 31q-80 -11 -255 1q-161 12 -245 -7q-8 -21 -2 -49zM3407 335q7 52 6 72q23 1 42 -7q23 -10 25 -28q3 -28 -18 -38 q1 1 -55 1zM3629 193q7 -15 5 -43q-1 -32 2 -44q14 3 48 1q29 -1 43 7q-1 8 0 45q1 29 -3 43q-11 -3 -48 -2q-32 1 -47 -7zM3769 242q-6 -70 15 -132q17 6 114 4q116 -3 115 -2q-2 13 -9 36q-7 25 -9 36q-34 -4 -148 9q-1 56 11 85q76 -27 110 -25q3 11 9 35q5 24 9 36 q-27 -3 -58 7q-42 14 -53 16q5 22 5 62q38 -7 131 -9q-1 13 -7 39q-6 29 -8 40q-38 -3 -112 0q-73 4 -112 -1q18 -61 17 -93q0 -26 -9 -71q-10 -51 -11 -72zM3918 827q-8 -114 26 -215q28 10 185 6q189 -4 187 -4q-4 22 -15 59q-11 40 -15 58q-55 -5 -240 15q-2 92 17 138 q124 -43 179 -40q5 18 14 57q10 39 15 58q-43 -5 -93 12q-68 23 -87 26q9 36 8 100q63 -11 213 -15q-2 22 -11 63q-10 48 -13 67q-61 -6 -183 -1q-118 6 -180 -1q28 -100 27 -151q0 -42 -15 -117q-16 -81 -19 -115zM4035 222q8 -16 13 -47q8 -43 10 -52q70 -31 141 -15 q78 16 84 81q3 26 -2 46q-8 29 -72 93q-52 52 -50 66q3 18 35 15q20 -2 46 -16q34 -18 42 -21q7 17 3 46q-4 33 -2 46q-105 21 -115 21q-42 -2 -69 -27t-29 -64q-2 -33 19 -62q-2 3 42 -48q3 -3 16 -18q10 -12 17 -20q29 -31 29 -43q0 -32 -45 -26q-20 3 -57 23 q-37 19 -56 22z" />
<glyph unicode="&#xa4;" horiz-adv-x="4378" d="M75 453q47 -63 56 -163q13 -137 32 -187h74q-3 77 60 179q-14 -93 20 -189q18 -7 81 -7q0 -3 72 183q44 111 41 205q0 1 -1 1q-4 -2 -14 -10q-8 -7 -15 -8q-3 -1 -14 -1q-7 0 -12 -3q-13 -8 -20 -53q-13 -85 -59 -159q15 99 -14 214q-4 0 -75 8q-15 -99 -72 -177 q-7 121 -46 180q1 0 -94 -13zM77 905q-22 -196 18 -288q90 6 113 -6q-40 144 4 317q7 -158 53 -270q24 1 113 -13q38 111 119 213q-34 -136 4 -249q83 -3 141 19q-21 81 4 315q14 128 -13 266q-26 0 -67 -5q-43 -6 -62 -6q-9 -103 -57 -193q-32 -60 -103 -147 q13 152 -51 287q-32 67 -47 72q-8 3 -61 0q-50 -2 -107 -17q23 -83 -1 -295zM545 312q-12 -94 35 -153q34 -43 100 -57q68 -14 121 17q36 20 60 62q24 43 28 92q7 98 -45 156q-53 59 -144 51q-49 -5 -87 -34q-56 -43 -68 -134zM631 232q-3 15 0 57q2 38 18 70q16 33 40 44 q5 2 23 4q55 4 79 -36q24 -41 7 -108q-16 -65 -49 -83q-21 -11 -49 -7q-27 4 -43 18q-22 19 -26 41zM699 610q102 19 130 17q-5 95 38 162q54 -11 172 -39q27 -60 36 -76q35 -63 47 -66q3 -1 43 4q67 9 134 6q-72 84 -90 111q-47 71 -57 149q-29 224 -81 330q-14 -1 -63 4 q-35 3 -58 -2q-16 -72 -64 -148q-15 -24 -43 -64q-33 -46 -44 -63q-81 -121 -100 -325zM929 899q9 17 34 47q24 29 34 47q8 -21 12 -119q-37 13 -80 25zM938 312q-13 -94 35 -153q34 -43 99 -57q69 -14 122 17q35 20 60 62q24 43 28 92q7 98 -45 156q-53 59 -144 51 q-50 -5 -88 -34q-55 -43 -67 -134zM1024 232q-3 15 0 57q2 38 18 70q16 33 39 44q6 2 24 4q55 4 78 -36q24 -41 8 -108q-16 -65 -49 -83q-21 -11 -49 -7t-43 18q-22 19 -26 41zM1311 251q-7 -79 13 -154q20 18 66 18q12 0 47 -1q28 0 43 1q45 2 73 23q73 53 80 155 q7 97 -62 146q-63 46 -170 40q-15 -1 -44 -3q-27 -3 -45 -3q18 -41 13 -106q-2 -20 -7 -58q-5 -39 -7 -58zM1335 1196q25 -56 22 -136q-1 -28 -16 -145q-22 -179 4 -291q19 -7 63 -4q39 2 59 -9q-50 171 17 374q9 -25 35 -108q20 -67 37 -104q35 -78 123 -164q41 -1 141 15 q-36 89 -12 283q25 205 -1 295q-19 6 -65 4q-42 -2 -63 9q57 -142 -8 -372q-15 28 -34 103q-18 76 -36 112q-17 32 -60 83q-59 69 -72 72q-54 13 -134 -17zM1388 191q-1 44 13 111q16 73 17 107q93 -6 116 -45q20 -35 6 -93q-14 -56 -46 -76q-18 -11 -48 -9q-5 0 -27 3 q-19 2 -31 2zM1656 308q-14 -97 30 -151q42 -52 126 -62t148 32q-8 8 -9 32q-2 42 -2 40q-46 -31 -105 -32q-64 -1 -90 40q-27 43 -9 107q18 63 62 81q34 14 83 -5q63 -24 78 -25q1 47 -9 94q-17 2 -51 8q-33 5 -50 7q-56 6 -92 -9q-24 -10 -42 -23q-55 -37 -68 -134z M1872 957q-20 -152 57 -248q56 -70 162 -92q111 -23 197 26q58 33 97 102q40 69 46 149q12 159 -73 254q-86 96 -233 82q-81 -7 -143 -55q-90 -70 -110 -218zM2009 219q5 -51 40 -83q32 -31 82 -36q75 -8 120 36q19 19 33 108q24 152 0 230q-48 3 -69 -10q14 -116 1 -161 q-1 -4 -5 -14t-5 -16q-2 -8 -5 -26q-3 -20 -5 -29q-7 -34 -21 -41q-21 -11 -49 0q-25 11 -33 30q-9 22 10 105q24 103 0 165q-67 3 -94 -9q2 -7 7 -19t6 -18q10 -38 -2 -106q-14 -77 -11 -106zM2012 828q-5 23 0 92q4 61 29 113q27 55 64 72q9 4 39 6q40 4 75 -12t52 -45 q39 -67 12 -176q-26 -106 -80 -135q-33 -18 -79 -11q-44 6 -70 28q-35 32 -42 68zM2327 441q4 -22 4 -34q107 4 128 -1q-1 -26 -29 -142q-21 -84 -1 -146q10 -3 46 -8q30 -4 43 -12q-18 85 -13 118q2 19 24 86q18 53 15 92q13 -2 97 2q6 15 -5 80q-50 -8 -157 0 q-100 7 -151 -4q-5 -13 -1 -31zM2495 860q-15 -124 20 -243q42 2 197 -3q117 -4 181 10q-35 104 -34 102q-132 -5 -236 19q-10 61 16 149q31 106 33 144q5 96 -28 175q-105 3 -146 -17q35 -61 25 -161q-3 -30 -13 -87q-11 -62 -15 -88zM2681 441q5 -22 4 -34q108 4 129 -1 q-1 -26 -29 -142q-21 -84 -2 -146q11 -3 47 -8q30 -4 42 -12q-17 85 -13 118q3 19 25 86q17 53 15 92q13 -2 97 2q5 15 -6 80q-49 -8 -157 0q-99 7 -150 -4q-5 -13 -2 -31zM2926 827q-9 -114 25 -215q28 10 185 6q189 -4 187 -4q-4 22 -14 59q-11 40 -15 58q-56 -5 -241 15 q-1 92 17 138q125 -43 179 -40q6 18 15 57t15 58q-44 -5 -94 12q-68 23 -87 26q9 36 9 100q62 -11 212 -15q-1 22 -10 63q-11 48 -13 67q-62 -6 -183 -1q-119 6 -181 -1q29 -100 28 -151q-1 -42 -16 -117q-16 -81 -18 -115zM3032 242q-5 -70 16 -132q17 6 114 4 q116 -3 115 -2q-3 13 -9 36q-7 24 -9 36q-35 -4 -148 9q-2 56 10 85q77 -27 110 -25q3 11 9 35l9 36q-26 -3 -57 7q-42 14 -54 16q6 22 5 62q39 -7 131 -9q-1 13 -6 39q-7 29 -8 40q-38 -3 -113 0q-73 4 -111 -1q18 -61 17 -93q-1 -26 -10 -71q-9 -51 -11 -72zM3310 469 q19 -57 4 -177q-15 -122 4 -180q72 -1 78 -3q-24 98 -4 154q8 1 10 -7q1 -2 2 -6q1 -5 1 -6q22 -59 61 -104q25 -29 34 -31q13 -4 51 -1q19 1 65 15q-106 68 -132 142q44 9 67 54q22 45 4 92q-20 51 -100 65q-68 11 -145 -7zM3366 1159q8 -37 7 -55q174 6 208 -2 q-1 -43 -47 -231q-33 -137 -2 -237q17 -6 75 -13q49 -7 70 -19q-29 137 -21 191q4 31 39 139q28 87 24 150q22 -4 158 3q10 26 4 66q-2 12 -6 32q-5 23 -7 31q-80 -11 -255 1q-161 12 -245 -7q-8 -21 -2 -49zM3407 335q7 52 6 72q23 1 42 -7q23 -10 25 -28q3 -28 -18 -38 q1 1 -55 1zM3629 193q7 -15 5 -43q-1 -32 2 -44q14 3 48 1q29 -1 43 7q-1 8 0 45q1 29 -3 43q-11 -3 -48 -2q-32 1 -47 -7zM3769 242q-6 -70 15 -132q17 6 114 4q116 -3 115 -2q-2 13 -9 36q-7 25 -9 36q-34 -4 -148 9q-1 56 11 85q76 -27 110 -25q3 11 9 35q5 24 9 36 q-27 -3 -58 7q-42 14 -53 16q5 22 5 62q38 -7 131 -9q-1 13 -7 39q-6 29 -8 40q-38 -3 -112 0q-73 4 -112 -1q18 -61 17 -93q0 -26 -9 -71q-10 -51 -11 -72zM3918 827q-8 -114 26 -215q28 10 185 6q189 -4 187 -4q-4 22 -15 59q-11 40 -15 58q-55 -5 -240 15q-2 92 17 138 q124 -43 179 -40q5 18 14 57q10 39 15 58q-43 -5 -93 12q-68 23 -87 26q9 36 8 100q63 -11 213 -15q-2 22 -11 63q-10 48 -13 67q-61 -6 -183 -1q-118 6 -180 -1q28 -100 27 -151q0 -42 -15 -117q-16 -81 -19 -115zM4035 222q8 -16 13 -47q8 -43 10 -52q70 -31 141 -15 q78 16 84 81q3 26 -2 46q-8 29 -72 93q-52 52 -50 66q3 18 35 15q20 -2 46 -16q34 -18 42 -21q7 17 3 46q-4 33 -2 46q-105 21 -115 21q-42 -2 -69 -27t-29 -64q-2 -33 19 -62q-2 3 42 -48q3 -3 16 -18q10 -12 17 -20q29 -31 29 -43q0 -32 -45 -26q-20 3 -57 23 q-37 19 -56 22z" />
<glyph unicode="&#xa5;" horiz-adv-x="4378" d="M75 453q47 -63 56 -163q13 -137 32 -187h74q-3 77 60 179q-14 -93 20 -189q18 -7 81 -7q0 -3 72 183q44 111 41 205q0 1 -1 1q-4 -2 -14 -10q-8 -7 -15 -8q-3 -1 -14 -1q-7 0 -12 -3q-13 -8 -20 -53q-13 -85 -59 -159q15 99 -14 214q-4 0 -75 8q-15 -99 -72 -177 q-7 121 -46 180q1 0 -94 -13zM77 905q-22 -196 18 -288q90 6 113 -6q-40 144 4 317q7 -158 53 -270q24 1 113 -13q38 111 119 213q-34 -136 4 -249q83 -3 141 19q-21 81 4 315q14 128 -13 266q-26 0 -67 -5q-43 -6 -62 -6q-9 -103 -57 -193q-32 -60 -103 -147 q13 152 -51 287q-32 67 -47 72q-8 3 -61 0q-50 -2 -107 -17q23 -83 -1 -295zM545 312q-12 -94 35 -153q34 -43 100 -57q68 -14 121 17q36 20 60 62q24 43 28 92q7 98 -45 156q-53 59 -144 51q-49 -5 -87 -34q-56 -43 -68 -134zM631 232q-3 15 0 57q2 38 18 70q16 33 40 44 q5 2 23 4q55 4 79 -36q24 -41 7 -108q-16 -65 -49 -83q-21 -11 -49 -7q-27 4 -43 18q-22 19 -26 41zM699 610q102 19 130 17q-5 95 38 162q54 -11 172 -39q27 -60 36 -76q35 -63 47 -66q3 -1 43 4q67 9 134 6q-72 84 -90 111q-47 71 -57 149q-29 224 -81 330q-14 -1 -63 4 q-35 3 -58 -2q-16 -72 -64 -148q-15 -24 -43 -64q-33 -46 -44 -63q-81 -121 -100 -325zM929 899q9 17 34 47q24 29 34 47q8 -21 12 -119q-37 13 -80 25zM938 312q-13 -94 35 -153q34 -43 99 -57q69 -14 122 17q35 20 60 62q24 43 28 92q7 98 -45 156q-53 59 -144 51 q-50 -5 -88 -34q-55 -43 -67 -134zM1024 232q-3 15 0 57q2 38 18 70q16 33 39 44q6 2 24 4q55 4 78 -36q24 -41 8 -108q-16 -65 -49 -83q-21 -11 -49 -7t-43 18q-22 19 -26 41zM1311 251q-7 -79 13 -154q20 18 66 18q12 0 47 -1q28 0 43 1q45 2 73 23q73 53 80 155 q7 97 -62 146q-63 46 -170 40q-15 -1 -44 -3q-27 -3 -45 -3q18 -41 13 -106q-2 -20 -7 -58q-5 -39 -7 -58zM1335 1196q25 -56 22 -136q-1 -28 -16 -145q-22 -179 4 -291q19 -7 63 -4q39 2 59 -9q-50 171 17 374q9 -25 35 -108q20 -67 37 -104q35 -78 123 -164q41 -1 141 15 q-36 89 -12 283q25 205 -1 295q-19 6 -65 4q-42 -2 -63 9q57 -142 -8 -372q-15 28 -34 103q-18 76 -36 112q-17 32 -60 83q-59 69 -72 72q-54 13 -134 -17zM1388 191q-1 44 13 111q16 73 17 107q93 -6 116 -45q20 -35 6 -93q-14 -56 -46 -76q-18 -11 -48 -9q-5 0 -27 3 q-19 2 -31 2zM1656 308q-14 -97 30 -151q42 -52 126 -62t148 32q-8 8 -9 32q-2 42 -2 40q-46 -31 -105 -32q-64 -1 -90 40q-27 43 -9 107q18 63 62 81q34 14 83 -5q63 -24 78 -25q1 47 -9 94q-17 2 -51 8q-33 5 -50 7q-56 6 -92 -9q-24 -10 -42 -23q-55 -37 -68 -134z M1872 957q-20 -152 57 -248q56 -70 162 -92q111 -23 197 26q58 33 97 102q40 69 46 149q12 159 -73 254q-86 96 -233 82q-81 -7 -143 -55q-90 -70 -110 -218zM2009 219q5 -51 40 -83q32 -31 82 -36q75 -8 120 36q19 19 33 108q24 152 0 230q-48 3 -69 -10q14 -116 1 -161 q-1 -4 -5 -14t-5 -16q-2 -8 -5 -26q-3 -20 -5 -29q-7 -34 -21 -41q-21 -11 -49 0q-25 11 -33 30q-9 22 10 105q24 103 0 165q-67 3 -94 -9q2 -7 7 -19t6 -18q10 -38 -2 -106q-14 -77 -11 -106zM2012 828q-5 23 0 92q4 61 29 113q27 55 64 72q9 4 39 6q40 4 75 -12t52 -45 q39 -67 12 -176q-26 -106 -80 -135q-33 -18 -79 -11q-44 6 -70 28q-35 32 -42 68zM2327 441q4 -22 4 -34q107 4 128 -1q-1 -26 -29 -142q-21 -84 -1 -146q10 -3 46 -8q30 -4 43 -12q-18 85 -13 118q2 19 24 86q18 53 15 92q13 -2 97 2q6 15 -5 80q-50 -8 -157 0 q-100 7 -151 -4q-5 -13 -1 -31zM2495 860q-15 -124 20 -243q42 2 197 -3q117 -4 181 10q-35 104 -34 102q-132 -5 -236 19q-10 61 16 149q31 106 33 144q5 96 -28 175q-105 3 -146 -17q35 -61 25 -161q-3 -30 -13 -87q-11 -62 -15 -88zM2681 441q5 -22 4 -34q108 4 129 -1 q-1 -26 -29 -142q-21 -84 -2 -146q11 -3 47 -8q30 -4 42 -12q-17 85 -13 118q3 19 25 86q17 53 15 92q13 -2 97 2q5 15 -6 80q-49 -8 -157 0q-99 7 -150 -4q-5 -13 -2 -31zM2926 827q-9 -114 25 -215q28 10 185 6q189 -4 187 -4q-4 22 -14 59q-11 40 -15 58q-56 -5 -241 15 q-1 92 17 138q125 -43 179 -40q6 18 15 57t15 58q-44 -5 -94 12q-68 23 -87 26q9 36 9 100q62 -11 212 -15q-1 22 -10 63q-11 48 -13 67q-62 -6 -183 -1q-119 6 -181 -1q29 -100 28 -151q-1 -42 -16 -117q-16 -81 -18 -115zM3032 242q-5 -70 16 -132q17 6 114 4 q116 -3 115 -2q-3 13 -9 36q-7 24 -9 36q-35 -4 -148 9q-2 56 10 85q77 -27 110 -25q3 11 9 35l9 36q-26 -3 -57 7q-42 14 -54 16q6 22 5 62q39 -7 131 -9q-1 13 -6 39q-7 29 -8 40q-38 -3 -113 0q-73 4 -111 -1q18 -61 17 -93q-1 -26 -10 -71q-9 -51 -11 -72zM3310 469 q19 -57 4 -177q-15 -122 4 -180q72 -1 78 -3q-24 98 -4 154q8 1 10 -7q1 -2 2 -6q1 -5 1 -6q22 -59 61 -104q25 -29 34 -31q13 -4 51 -1q19 1 65 15q-106 68 -132 142q44 9 67 54q22 45 4 92q-20 51 -100 65q-68 11 -145 -7zM3366 1159q8 -37 7 -55q174 6 208 -2 q-1 -43 -47 -231q-33 -137 -2 -237q17 -6 75 -13q49 -7 70 -19q-29 137 -21 191q4 31 39 139q28 87 24 150q22 -4 158 3q10 26 4 66q-2 12 -6 32q-5 23 -7 31q-80 -11 -255 1q-161 12 -245 -7q-8 -21 -2 -49zM3407 335q7 52 6 72q23 1 42 -7q23 -10 25 -28q3 -28 -18 -38 q1 1 -55 1zM3629 193q7 -15 5 -43q-1 -32 2 -44q14 3 48 1q29 -1 43 7q-1 8 0 45q1 29 -3 43q-11 -3 -48 -2q-32 1 -47 -7zM3769 242q-6 -70 15 -132q17 6 114 4q116 -3 115 -2q-2 13 -9 36q-7 25 -9 36q-34 -4 -148 9q-1 56 11 85q76 -27 110 -25q3 11 9 35q5 24 9 36 q-27 -3 -58 7q-42 14 -53 16q5 22 5 62q38 -7 131 -9q-1 13 -7 39q-6 29 -8 40q-38 -3 -112 0q-73 4 -112 -1q18 -61 17 -93q0 -26 -9 -71q-10 -51 -11 -72zM3918 827q-8 -114 26 -215q28 10 185 6q189 -4 187 -4q-4 22 -15 59q-11 40 -15 58q-55 -5 -240 15q-2 92 17 138 q124 -43 179 -40q5 18 14 57q10 39 15 58q-43 -5 -93 12q-68 23 -87 26q9 36 8 100q63 -11 213 -15q-2 22 -11 63q-10 48 -13 67q-61 -6 -183 -1q-118 6 -180 -1q28 -100 27 -151q0 -42 -15 -117q-16 -81 -19 -115zM4035 222q8 -16 13 -47q8 -43 10 -52q70 -31 141 -15 q78 16 84 81q3 26 -2 46q-8 29 -72 93q-52 52 -50 66q3 18 35 15q20 -2 46 -16q34 -18 42 -21q7 17 3 46q-4 33 -2 46q-105 21 -115 21q-42 -2 -69 -27t-29 -64q-2 -33 19 -62q-2 3 42 -48q3 -3 16 -18q10 -12 17 -20q29 -31 29 -43q0 -32 -45 -26q-20 3 -57 23 q-37 19 -56 22z" />
<glyph unicode="&#xa6;" horiz-adv-x="408" d="M44 313q15 -191 79 -313h194q-135 325 -62 582q-46 81 -181 74q-46 -149 -30 -343zM74 1428q64 -124 84 -287q20 -176 -23 -328q29 -12 93 -29q65 -17 93 -29q73 274 8 508q-41 148 -82 165q-28 11 -82 2q-60 -9 -91 -2z" />
<glyph unicode="&#xa7;" horiz-adv-x="891" d="M26 380q41 -11 169 -84q109 -62 200 -67q43 -2 78 6q43 11 48 32q7 30 -61 79q-21 15 -55 37q-40 24 -43 26q-122 82 -178 145q-91 103 -87 216q5 127 114 218q-79 79 -68 199q10 113 89 175q94 73 265 72q144 -1 301 -51q53 -271 54 -282q-14 5 -103 42q-63 25 -115 38 q-75 19 -131 22q-93 5 -100 -39q-4 -31 62 -77q21 -15 54 -34q37 -21 40 -23q112 -71 167 -130q83 -88 93 -193q11 -126 -118 -251q57 -86 63 -98q30 -61 21 -133q-11 -96 -93 -153q-73 -51 -191 -66q-237 -28 -420 72q-10 46 -27 151q-17 99 -28 151zM378 850 q-51 -75 16 -151q15 -16 131 -105q77 64 -9 148q-25 25 -77 62q-51 36 -61 46z" />
<glyph unicode="&#xa8;" horiz-adv-x="663" d="M52 1484q-1 -80 9 -104q113 37 203 31q9 40 23 110q16 78 23 109q-58 18 -129 10q-24 -3 -128 -26q1 -15 -1 -130zM366 1400q58 -19 125 -10q4 0 129 26q-2 19 1 122q1 75 -9 112q-71 -31 -203 -35q-3 -13 -24 -106q-14 -63 -19 -109z" />
<glyph unicode="&#xa9;" horiz-adv-x="1529" d="M41 723q5 162 66 295q103 226 310 335q124 65 296 79q136 11 276 -36q129 -44 226 -122q206 -168 255 -413q51 -252 -73 -492q-111 -213 -347 -310q-233 -97 -475 -35q-159 41 -289 154q-122 105 -189 245q-61 129 -56 300zM275 743q-10 -224 143 -370q144 -139 359 -142 q134 -2 247 78q107 75 166 198q60 125 51 255q-11 140 -100 247q-18 -40 -20 -237q-45 17 -122 63q-83 50 -119 65q-67 29 -128 8q-54 -19 -93 -72q-36 -52 -45 -117q-9 -67 15 -124q72 -170 472 -39q-73 -116 -103 -153q14 -90 -52 -122q-42 -21 -135 -20q-211 0 -344 132 q-138 138 -119 355q15 171 135 285q123 116 294 113q108 -1 339 -98q-107 113 -254 141q-136 26 -271 -25q-134 -51 -220 -160q-90 -115 -96 -261z" />
<glyph unicode="&#xaa;" horiz-adv-x="648" />
<glyph unicode="&#xab;" horiz-adv-x="944" />
<glyph unicode="&#xac;" horiz-adv-x="1243" d="M32 822q-16 53 2 87q26 48 138 75q87 21 184 22q109 1 276 -36q254 -56 266 -56q67 0 161 30q112 36 146 41q-1 -51 1 -289q1 -178 -6 -283q-36 -23 -113 -41q-100 -23 -122 -31q-21 140 5 332q-202 6 -292 31q-212 59 -378 51q-19 -1 -63 -4t-65 -4q-74 -4 -97 8 q-28 15 -43 67z" />
<glyph unicode="&#xad;" horiz-adv-x="960" d="M115 602v223q64 34 111 46q60 15 142 9q49 -3 135 -29q89 -27 126 -31q59 -5 130 14q4 1 58 18q36 11 61 16q5 -38 4 -107q-1 -92 0 -112q-149 -45 -283 -34q-46 4 -108 23q-99 32 -102 33q-63 16 -142 -14q-19 -7 -67 -29q-41 -18 -65 -26z" />
<glyph unicode="&#xae;" horiz-adv-x="4378" d="M75 453q47 -63 56 -163q13 -137 32 -187h74q-3 77 60 179q-14 -93 20 -189q18 -7 81 -7q0 -3 72 183q44 111 41 205q0 1 -1 1q-4 -2 -14 -10q-8 -7 -15 -8q-3 -1 -14 -1q-7 0 -12 -3q-13 -8 -20 -53q-13 -85 -59 -159q15 99 -14 214q-4 0 -75 8q-15 -99 -72 -177 q-7 121 -46 180q1 0 -94 -13zM77 905q-22 -196 18 -288q90 6 113 -6q-40 144 4 317q7 -158 53 -270q24 1 113 -13q38 111 119 213q-34 -136 4 -249q83 -3 141 19q-21 81 4 315q14 128 -13 266q-26 0 -67 -5q-43 -6 -62 -6q-9 -103 -57 -193q-32 -60 -103 -147 q13 152 -51 287q-32 67 -47 72q-8 3 -61 0q-50 -2 -107 -17q23 -83 -1 -295zM545 312q-12 -94 35 -153q34 -43 100 -57q68 -14 121 17q36 20 60 62q24 43 28 92q7 98 -45 156q-53 59 -144 51q-49 -5 -87 -34q-56 -43 -68 -134zM631 232q-3 15 0 57q2 38 18 70q16 33 40 44 q5 2 23 4q55 4 79 -36q24 -41 7 -108q-16 -65 -49 -83q-21 -11 -49 -7q-27 4 -43 18q-22 19 -26 41zM699 610q102 19 130 17q-5 95 38 162q54 -11 172 -39q27 -60 36 -76q35 -63 47 -66q3 -1 43 4q67 9 134 6q-72 84 -90 111q-47 71 -57 149q-29 224 -81 330q-14 -1 -63 4 q-35 3 -58 -2q-16 -72 -64 -148q-15 -24 -43 -64q-33 -46 -44 -63q-81 -121 -100 -325zM929 899q9 17 34 47q24 29 34 47q8 -21 12 -119q-37 13 -80 25zM938 312q-13 -94 35 -153q34 -43 99 -57q69 -14 122 17q35 20 60 62q24 43 28 92q7 98 -45 156q-53 59 -144 51 q-50 -5 -88 -34q-55 -43 -67 -134zM1024 232q-3 15 0 57q2 38 18 70q16 33 39 44q6 2 24 4q55 4 78 -36q24 -41 8 -108q-16 -65 -49 -83q-21 -11 -49 -7t-43 18q-22 19 -26 41zM1311 251q-7 -79 13 -154q20 18 66 18q12 0 47 -1q28 0 43 1q45 2 73 23q73 53 80 155 q7 97 -62 146q-63 46 -170 40q-15 -1 -44 -3q-27 -3 -45 -3q18 -41 13 -106q-2 -20 -7 -58q-5 -39 -7 -58zM1335 1196q25 -56 22 -136q-1 -28 -16 -145q-22 -179 4 -291q19 -7 63 -4q39 2 59 -9q-50 171 17 374q9 -25 35 -108q20 -67 37 -104q35 -78 123 -164q41 -1 141 15 q-36 89 -12 283q25 205 -1 295q-19 6 -65 4q-42 -2 -63 9q57 -142 -8 -372q-15 28 -34 103q-18 76 -36 112q-17 32 -60 83q-59 69 -72 72q-54 13 -134 -17zM1388 191q-1 44 13 111q16 73 17 107q93 -6 116 -45q20 -35 6 -93q-14 -56 -46 -76q-18 -11 -48 -9q-5 0 -27 3 q-19 2 -31 2zM1656 308q-14 -97 30 -151q42 -52 126 -62t148 32q-8 8 -9 32q-2 42 -2 40q-46 -31 -105 -32q-64 -1 -90 40q-27 43 -9 107q18 63 62 81q34 14 83 -5q63 -24 78 -25q1 47 -9 94q-17 2 -51 8q-33 5 -50 7q-56 6 -92 -9q-24 -10 -42 -23q-55 -37 -68 -134z M1872 957q-20 -152 57 -248q56 -70 162 -92q111 -23 197 26q58 33 97 102q40 69 46 149q12 159 -73 254q-86 96 -233 82q-81 -7 -143 -55q-90 -70 -110 -218zM2009 219q5 -51 40 -83q32 -31 82 -36q75 -8 120 36q19 19 33 108q24 152 0 230q-48 3 -69 -10q14 -116 1 -161 q-1 -4 -5 -14t-5 -16q-2 -8 -5 -26q-3 -20 -5 -29q-7 -34 -21 -41q-21 -11 -49 0q-25 11 -33 30q-9 22 10 105q24 103 0 165q-67 3 -94 -9q2 -7 7 -19t6 -18q10 -38 -2 -106q-14 -77 -11 -106zM2012 828q-5 23 0 92q4 61 29 113q27 55 64 72q9 4 39 6q40 4 75 -12t52 -45 q39 -67 12 -176q-26 -106 -80 -135q-33 -18 -79 -11q-44 6 -70 28q-35 32 -42 68zM2327 441q4 -22 4 -34q107 4 128 -1q-1 -26 -29 -142q-21 -84 -1 -146q10 -3 46 -8q30 -4 43 -12q-18 85 -13 118q2 19 24 86q18 53 15 92q13 -2 97 2q6 15 -5 80q-50 -8 -157 0 q-100 7 -151 -4q-5 -13 -1 -31zM2495 860q-15 -124 20 -243q42 2 197 -3q117 -4 181 10q-35 104 -34 102q-132 -5 -236 19q-10 61 16 149q31 106 33 144q5 96 -28 175q-105 3 -146 -17q35 -61 25 -161q-3 -30 -13 -87q-11 -62 -15 -88zM2681 441q5 -22 4 -34q108 4 129 -1 q-1 -26 -29 -142q-21 -84 -2 -146q11 -3 47 -8q30 -4 42 -12q-17 85 -13 118q3 19 25 86q17 53 15 92q13 -2 97 2q5 15 -6 80q-49 -8 -157 0q-99 7 -150 -4q-5 -13 -2 -31zM2926 827q-9 -114 25 -215q28 10 185 6q189 -4 187 -4q-4 22 -14 59q-11 40 -15 58q-56 -5 -241 15 q-1 92 17 138q125 -43 179 -40q6 18 15 57t15 58q-44 -5 -94 12q-68 23 -87 26q9 36 9 100q62 -11 212 -15q-1 22 -10 63q-11 48 -13 67q-62 -6 -183 -1q-119 6 -181 -1q29 -100 28 -151q-1 -42 -16 -117q-16 -81 -18 -115zM3032 242q-5 -70 16 -132q17 6 114 4 q116 -3 115 -2q-3 13 -9 36q-7 24 -9 36q-35 -4 -148 9q-2 56 10 85q77 -27 110 -25q3 11 9 35l9 36q-26 -3 -57 7q-42 14 -54 16q6 22 5 62q39 -7 131 -9q-1 13 -6 39q-7 29 -8 40q-38 -3 -113 0q-73 4 -111 -1q18 -61 17 -93q-1 -26 -10 -71q-9 -51 -11 -72zM3310 469 q19 -57 4 -177q-15 -122 4 -180q72 -1 78 -3q-24 98 -4 154q8 1 10 -7q1 -2 2 -6q1 -5 1 -6q22 -59 61 -104q25 -29 34 -31q13 -4 51 -1q19 1 65 15q-106 68 -132 142q44 9 67 54q22 45 4 92q-20 51 -100 65q-68 11 -145 -7zM3366 1159q8 -37 7 -55q174 6 208 -2 q-1 -43 -47 -231q-33 -137 -2 -237q17 -6 75 -13q49 -7 70 -19q-29 137 -21 191q4 31 39 139q28 87 24 150q22 -4 158 3q10 26 4 66q-2 12 -6 32q-5 23 -7 31q-80 -11 -255 1q-161 12 -245 -7q-8 -21 -2 -49zM3407 335q7 52 6 72q23 1 42 -7q23 -10 25 -28q3 -28 -18 -38 q1 1 -55 1zM3629 193q7 -15 5 -43q-1 -32 2 -44q14 3 48 1q29 -1 43 7q-1 8 0 45q1 29 -3 43q-11 -3 -48 -2q-32 1 -47 -7zM3769 242q-6 -70 15 -132q17 6 114 4q116 -3 115 -2q-2 13 -9 36q-7 25 -9 36q-34 -4 -148 9q-1 56 11 85q76 -27 110 -25q3 11 9 35q5 24 9 36 q-27 -3 -58 7q-42 14 -53 16q5 22 5 62q38 -7 131 -9q-1 13 -7 39q-6 29 -8 40q-38 -3 -112 0q-73 4 -112 -1q18 -61 17 -93q0 -26 -9 -71q-10 -51 -11 -72zM3918 827q-8 -114 26 -215q28 10 185 6q189 -4 187 -4q-4 22 -15 59q-11 40 -15 58q-55 -5 -240 15q-2 92 17 138 q124 -43 179 -40q5 18 14 57q10 39 15 58q-43 -5 -93 12q-68 23 -87 26q9 36 8 100q63 -11 213 -15q-2 22 -11 63q-10 48 -13 67q-61 -6 -183 -1q-118 6 -180 -1q28 -100 27 -151q0 -42 -15 -117q-16 -81 -19 -115zM4035 222q8 -16 13 -47q8 -43 10 -52q70 -31 141 -15 q78 16 84 81q3 26 -2 46q-8 29 -72 93q-52 52 -50 66q3 18 35 15q20 -2 46 -16q34 -18 42 -21q7 17 3 46q-4 33 -2 46q-105 21 -115 21q-42 -2 -69 -27t-29 -64q-2 -33 19 -62q-2 3 42 -48q3 -3 16 -18q10 -12 17 -20q29 -31 29 -43q0 -32 -45 -26q-20 3 -57 23 q-37 19 -56 22z" />
<glyph unicode="&#xaf;" horiz-adv-x="670" />
<glyph unicode="&#xb0;" horiz-adv-x="674" />
<glyph unicode="&#xb1;" horiz-adv-x="1254" d="M31 414q15 -37 34 -121q18 -85 33 -121q153 51 266 43q51 -4 204 -21q131 -14 209 -17q207 -8 419 24q-13 14 -34 90q-20 70 -42 85q-19 13 -84 13q-18 0 -58 -2q-39 -1 -58 -1q-146 0 -200 5q-57 5 -187 26q-119 19 -169 21q-157 8 -333 -24zM83 785q316 35 428 -9 q-59 -161 -66 -309q32 -11 112 -33q73 -20 111 -34q-11 154 62 309q253 -53 432 -5q-7 69 13 138q4 15 18 57q12 35 17 57q-97 -38 -207 -48q-128 -12 -226 20q14 80 15 119q3 139 -46 194q-57 64 -202 39q3 -18 13 -71q9 -45 12 -71q10 -83 -6 -148q-126 38 -480 23v-228z " />
<glyph unicode="&#xb2;" horiz-adv-x="1014" />
<glyph unicode="&#xb3;" horiz-adv-x="1014" />
<glyph unicode="&#xb4;" horiz-adv-x="680" d="M60 1171q17 121 105 231q45 55 174 172q72 -27 154 -4q19 5 134 53q-71 -177 -97 -213t-78 -70q-6 -4 -46 -30q-29 -18 -49 -33q-8 -6 -31 -32q-20 -22 -36 -30q-32 -15 -114 -19q-78 -3 -116 -25z" />
<glyph unicode="&#xb5;" horiz-adv-x="1046" d="M52 1421q51 -4 177 9q104 10 167 -4q58 -326 55 -374q-4 -49 -29 -146q-27 -103 -31 -143q-6 -56 0 -70q28 -65 147 -25q111 38 132 85q13 28 30 169q32 263 -45 509q62 -20 144 -17q11 0 75 4q49 3 85 3q62 -234 31 -553q-11 -109 -38 -276q-38 -239 -43 -273 q-237 -3 -314 30v50q-47 -27 -125 -34q-78 -6 -139 14q-2 -64 40 -339q-121 2 -152 0q-67 -7 -117 -40q-108 296 -35 728q54 322 50 404q-4 68 -65 289z" />
<glyph unicode="&#xb6;" horiz-adv-x="799" d="M40 1240q19 84 84 134q71 55 188 59q16 0 186 -2q131 -2 206 6q102 -323 8 -797q-53 -270 -48 -361q5 -79 87 -279h-461q-64 170 -55 397q9 221 81 382q-163 119 -170 127q-66 74 -95 164q-28 90 -11 170z" />
<glyph unicode="&#xb7;" horiz-adv-x="508" d="M79 700q-10 76 31 135q39 56 106 68q76 14 131 -25q50 -34 66 -98q17 -62 -8 -119q-27 -61 -93 -87q-37 -15 -78 -10q-38 5 -73 25q-34 20 -56 49q-22 30 -26 62z" />
<glyph unicode="&#xb8;" horiz-adv-x="1024" />
<glyph unicode="&#xb9;" horiz-adv-x="1014" />
<glyph unicode="&#xba;" horiz-adv-x="718" />
<glyph unicode="&#xbb;" horiz-adv-x="944" />
<glyph unicode="&#xbc;" horiz-adv-x="1708" />
<glyph unicode="&#xbd;" horiz-adv-x="1964" />
<glyph unicode="&#xbe;" horiz-adv-x="1708" />
<glyph unicode="&#xbf;" horiz-adv-x="968" d="M52 394q6 -198 174 -306q158 -103 393 -86q61 5 150 26q135 32 151 35q-7 25 -35 138q-20 85 -35 138q-300 -116 -427 -41q-48 29 -53 90q-6 60 33 111q33 43 148 102q116 60 158 114q52 65 68 152q12 61 13 204q-75 -6 -162 14q-121 28 -144 31q6 -186 -35 -261 q-209 -112 -271 -169q-131 -119 -126 -292zM423 1432q18 -35 76 -301q174 -36 291 -30q6 75 -12 162q-29 151 -28 144q-77 35 -327 25z" />
<glyph unicode="&#xc0;" d="M39 5q46 484 237 771q27 40 104 149q67 93 103 151q113 180 150 350q55 13 137 5q117 -11 150 -10q124 -249 192 -781q24 -184 136 -353q41 -62 211 -262q-156 6 -317 -15q-93 -12 -101 -10q-28 8 -110 156q-21 38 -86 182q-279 64 -408 90q-102 -157 -91 -382 q-66 4 -307 -41zM583 690q103 -28 191 -60q-11 232 -30 282q-24 -42 -80 -111q-58 -72 -81 -111z" />
<glyph unicode="&#xc1;" d="M39 5q46 484 237 771q27 40 104 149q67 93 103 151q113 180 150 350q55 13 137 5q117 -11 150 -10q124 -249 192 -781q24 -184 136 -353q41 -62 211 -262q-156 6 -317 -15q-93 -12 -101 -10q-28 8 -110 156q-21 38 -86 182q-279 64 -408 90q-102 -157 -91 -382 q-66 4 -307 -41zM583 690q103 -28 191 -60q-11 232 -30 282q-24 -42 -80 -111q-58 -72 -81 -111z" />
<glyph unicode="&#xc2;" d="M39 5q46 484 237 771q27 40 104 149q67 93 103 151q113 180 150 350q55 13 137 5q117 -11 150 -10q124 -249 192 -781q24 -184 136 -353q41 -62 211 -262q-156 6 -317 -15q-93 -12 -101 -10q-28 8 -110 156q-21 38 -86 182q-279 64 -408 90q-102 -157 -91 -382 q-66 4 -307 -41zM583 690q103 -28 191 -60q-11 232 -30 282q-24 -42 -80 -111q-58 -72 -81 -111z" />
<glyph unicode="&#xc3;" d="M39 5q46 484 237 771q27 40 104 149q67 93 103 151q113 180 150 350q55 13 137 5q117 -11 150 -10q124 -249 192 -781q24 -184 136 -353q41 -62 211 -262q-156 6 -317 -15q-93 -12 -101 -10q-28 8 -110 156q-21 38 -86 182q-279 64 -408 90q-102 -157 -91 -382 q-66 4 -307 -41zM583 690q103 -28 191 -60q-11 232 -30 282q-24 -42 -80 -111q-58 -72 -81 -111z" />
<glyph unicode="&#xc4;" d="M39 5q46 484 237 771q27 40 104 149q67 93 103 151q113 180 150 350q55 13 137 5q117 -11 150 -10q124 -249 192 -781q24 -184 136 -353q41 -62 211 -262q-156 6 -317 -15q-93 -12 -101 -10q-28 8 -110 156q-21 38 -86 182q-279 64 -408 90q-102 -157 -91 -382 q-66 4 -307 -41zM583 690q103 -28 191 -60q-11 232 -30 282q-24 -42 -80 -111q-58 -72 -81 -111z" />
<glyph unicode="&#xc5;" d="M39 5q46 484 237 771q27 40 104 149q67 93 103 151q113 180 150 350q55 13 137 5q117 -11 150 -10q124 -249 192 -781q24 -184 136 -353q41 -62 211 -262q-156 6 -317 -15q-93 -12 -101 -10q-28 8 -110 156q-21 38 -86 182q-279 64 -408 90q-102 -157 -91 -382 q-66 4 -307 -41zM583 690q103 -28 191 -60q-11 232 -30 282q-24 -42 -80 -111q-58 -72 -81 -111z" />
<glyph unicode="&#xc6;" horiz-adv-x="1784" d="M45 5q25 313 182 583q118 203 349 435q212 211 246 270q9 16 21 41q13 29 17 38q22 41 57 62q452 -89 727 0q22 -45 42 -174q19 -120 49 -167q-87 28 -241 10q-173 -21 -266 -5q-10 -33 -21 -133q-11 -101 -24 -143q90 -28 406 0q7 -134 -40 -291q-375 4 -441 15 q-41 -80 -50 -265q262 -54 662 30q-26 -46 -21 -134q5 -99 -10 -142q-508 -77 -957 15q0 24 -1 181q0 111 6 175q9 -5 -256 60q-38 -55 -180 -406q-65 2 -136 -19q-118 -36 -120 -36zM687 717q25 -1 59 -14q38 -14 56 -16q5 17 35 101q23 62 25 99q-26 -30 -88 -85 q-60 -54 -87 -85z" />
<glyph unicode="&#xc7;" horiz-adv-x="1276" d="M39 669q-1 333 151 535q155 208 437 229q128 10 534 -64q28 -244 83 -377q-39 11 -260 105q-156 66 -279 62q-105 -4 -175 -74q-51 -50 -99 -156q-50 -109 -59 -275q-6 -104 33 -193q38 -88 109 -140q114 -83 298 -57q156 22 295 106q-1 -31 1 -82q3 -62 3 -81 q0 -92 -29 -136q-134 -66 -284 -78q44 -50 42 -135q-1 -87 -52 -130q-71 -59 -183 -44q-95 13 -179 69q2 59 -31 121q-4 8 -30 51q-18 31 -27 53q10 5 32 -5q28 -13 36 -14q2 6 11 43q7 26 14 40q-194 87 -287 227q-105 155 -105 400z" />
<glyph unicode="&#xc8;" horiz-adv-x="1035" d="M46 512q6 80 44 276q35 177 37 277q2 122 -66 360q148 17 431 3q289 -13 436 2q6 -44 31 -159q21 -99 25 -150q-358 10 -507 35q2 -153 -20 -238q46 -7 208 -62q119 -41 223 -30q-13 -44 -36 -136q-22 -93 -35 -137q-113 -7 -229 27q7 -2 -197 69q-45 -111 -41 -330 q441 -47 573 -35q10 -43 36 -139q25 -88 35 -140q4 0 -446 10q-40 1 -117 6t-114 6q-129 2 -210 -27q-81 240 -61 512z" />
<glyph unicode="&#xc9;" horiz-adv-x="1035" d="M46 512q6 80 44 276q35 177 37 277q2 122 -66 360q148 17 431 3q289 -13 436 2q6 -44 31 -159q21 -99 25 -150q-358 10 -507 35q2 -153 -20 -238q46 -7 208 -62q119 -41 223 -30q-13 -44 -36 -136q-22 -93 -35 -137q-113 -7 -229 27q7 -2 -197 69q-45 -111 -41 -330 q441 -47 573 -35q10 -43 36 -139q25 -88 35 -140q4 0 -446 10q-40 1 -117 6t-114 6q-129 2 -210 -27q-81 240 -61 512z" />
<glyph unicode="&#xca;" horiz-adv-x="1035" d="M46 512q6 80 44 276q35 177 37 277q2 122 -66 360q148 17 431 3q289 -13 436 2q6 -44 31 -159q21 -99 25 -150q-358 10 -507 35q2 -153 -20 -238q46 -7 208 -62q119 -41 223 -30q-13 -44 -36 -136q-22 -93 -35 -137q-113 -7 -229 27q7 -2 -197 69q-45 -111 -41 -330 q441 -47 573 -35q10 -43 36 -139q25 -88 35 -140q4 0 -446 10q-40 1 -117 6t-114 6q-129 2 -210 -27q-81 240 -61 512z" />
<glyph unicode="&#xcb;" horiz-adv-x="1035" d="M46 512q6 80 44 276q35 177 37 277q2 122 -66 360q148 17 431 3q289 -13 436 2q6 -44 31 -159q21 -99 25 -150q-358 10 -507 35q2 -153 -20 -238q46 -7 208 -62q119 -41 223 -30q-13 -44 -36 -136q-22 -93 -35 -137q-113 -7 -229 27q7 -2 -197 69q-45 -111 -41 -330 q441 -47 573 -35q10 -43 36 -139q25 -88 35 -140q4 0 -446 10q-40 1 -117 6t-114 6q-129 2 -210 -27q-81 240 -61 512z" />
<glyph unicode="&#xcc;" horiz-adv-x="560" d="M57 411q-3 99 62 337q63 232 56 372q-7 122 -77 298q1 8 -5 10q60 7 168 6q145 -2 176 -1q113 -268 46 -636q-10 -56 -41 -150q-32 -99 -41 -143q-27 -125 6 -259q18 -71 86 -239q-62 -7 -171 -6q-147 2 -178 1q-84 277 -87 410z" />
<glyph unicode="&#xcd;" horiz-adv-x="560" d="M57 411q-3 99 62 337q63 232 56 372q-7 122 -77 298q1 8 -5 10q60 7 168 6q145 -2 176 -1q113 -268 46 -636q-10 -56 -41 -150q-32 -99 -41 -143q-27 -125 6 -259q18 -71 86 -239q-62 -7 -171 -6q-147 2 -178 1q-84 277 -87 410z" />
<glyph unicode="&#xce;" horiz-adv-x="560" d="M57 411q-3 99 62 337q63 232 56 372q-7 122 -77 298q1 8 -5 10q60 7 168 6q145 -2 176 -1q113 -268 46 -636q-10 -56 -41 -150q-32 -99 -41 -143q-27 -125 6 -259q18 -71 86 -239q-62 -7 -171 -6q-147 2 -178 1q-84 277 -87 410z" />
<glyph unicode="&#xcf;" horiz-adv-x="560" d="M57 411q-3 99 62 337q63 232 56 372q-7 122 -77 298q1 8 -5 10q60 7 168 6q145 -2 176 -1q113 -268 46 -636q-10 -56 -41 -150q-32 -99 -41 -143q-27 -125 6 -259q18 -71 86 -239q-62 -7 -171 -6q-147 2 -178 1q-84 277 -87 410z" />
<glyph unicode="&#xd0;" horiz-adv-x="1557" d="M32 598q5 24 40 78q35 53 41 84q-1 -6 8 97q5 52 32 81q29 -5 85 1q80 8 98 9q34 278 -16 486q5 0 6 -6q552 21 814 -81q159 -61 258 -195q102 -140 117 -331q31 -407 -238 -668q-81 -78 -192 -121q-125 -49 -387 -23q-314 31 -428 17q-40 270 5 638q-58 -3 -127 -27 q-100 -35 -116 -39zM558 320q178 -36 247 -37q134 -4 214 62q79 66 122 206q42 135 30 270q-6 62 -32 125q-28 68 -64 98q-51 41 -175 71q-39 10 -103 22q-75 14 -92 18q-1 -85 -40 -248q112 -24 319 -91q-36 -29 -76 -129q-38 -96 -81 -124q-95 42 -223 71 q-46 -221 -46 -314z" />
<glyph unicode="&#xd1;" horiz-adv-x="1237" d="M48 566q6 94 63 422q45 260 29 450q54 2 118 -5q84 -9 115 -10q-8 166 63 228q65 56 174 32q94 -21 160 -81q-2 15 -9 35q-9 23 -11 33h242q38 -101 29 -191q-10 -109 -87 -143h267q18 -181 -28 -444q-60 -340 -64 -413q-11 -165 19 -266q3 -9 12 -34q10 -25 15 -41 q16 -55 7 -104q-47 8 -142 -2q-90 -10 -139 2t-174 160q-238 281 -325 668q-63 -161 -58 -402q4 -214 58 -416q-130 1 -153 -1q-75 -6 -113 -43q-81 325 -68 566zM494 1365q95 -104 173 -383q86 -307 151 -406q5 46 76 367q49 222 31 388q-87 -24 -173 17q-29 13 -69 40 q-54 34 -63 40q-37 -68 -126 -63z" />
<glyph unicode="&#xd2;" horiz-adv-x="1385" d="M55 801q21 157 86 289q68 136 167 213q143 110 328 127q339 32 538 -189q196 -218 168 -585q-14 -184 -106 -344q-90 -159 -223 -234q-199 -114 -454 -61q-244 50 -373 213q-177 221 -131 571zM377 504q5 -28 42 -85q35 -53 56 -72q57 -52 159 -65q106 -15 183 26 q124 66 185 310q62 253 -28 405q-39 67 -120 104t-174 29q-68 -6 -88 -15q-87 -38 -148 -165q-58 -119 -67 -261q-11 -158 0 -211z" />
<glyph unicode="&#xd3;" horiz-adv-x="1385" d="M55 801q21 157 86 289q68 136 167 213q143 110 328 127q339 32 538 -189q196 -218 168 -585q-14 -184 -106 -344q-90 -159 -223 -234q-199 -114 -454 -61q-244 50 -373 213q-177 221 -131 571zM377 504q5 -28 42 -85q35 -53 56 -72q57 -52 159 -65q106 -15 183 26 q124 66 185 310q62 253 -28 405q-39 67 -120 104t-174 29q-68 -6 -88 -15q-87 -38 -148 -165q-58 -119 -67 -261q-11 -158 0 -211z" />
<glyph unicode="&#xd4;" horiz-adv-x="1385" d="M55 801q21 157 86 289q68 136 167 213q143 110 328 127q339 32 538 -189q196 -218 168 -585q-14 -184 -106 -344q-90 -159 -223 -234q-199 -114 -454 -61q-244 50 -373 213q-177 221 -131 571zM377 504q5 -28 42 -85q35 -53 56 -72q57 -52 159 -65q106 -15 183 26 q124 66 185 310q62 253 -28 405q-39 67 -120 104t-174 29q-68 -6 -88 -15q-87 -38 -148 -165q-58 -119 -67 -261q-11 -158 0 -211z" />
<glyph unicode="&#xd5;" horiz-adv-x="1385" d="M55 801q21 157 86 289q68 136 167 213q143 110 328 127q339 32 538 -189q196 -218 168 -585q-14 -184 -106 -344q-90 -159 -223 -234q-199 -114 -454 -61q-244 50 -373 213q-177 221 -131 571zM377 504q5 -28 42 -85q35 -53 56 -72q57 -52 159 -65q106 -15 183 26 q124 66 185 310q62 253 -28 405q-39 67 -120 104t-174 29q-68 -6 -88 -15q-87 -38 -148 -165q-58 -119 -67 -261q-11 -158 0 -211z" />
<glyph unicode="&#xd6;" horiz-adv-x="1385" d="M55 801q21 157 86 289q68 136 167 213q143 110 328 127q339 32 538 -189q196 -218 168 -585q-14 -184 -106 -344q-90 -159 -223 -234q-199 -114 -454 -61q-244 50 -373 213q-177 221 -131 571zM377 504q5 -28 42 -85q35 -53 56 -72q57 -52 159 -65q106 -15 183 26 q124 66 185 310q62 253 -28 405q-39 67 -120 104t-174 29q-68 -6 -88 -15q-87 -38 -148 -165q-58 -119 -67 -261q-11 -158 0 -211z" />
<glyph unicode="&#xd7;" horiz-adv-x="1113" d="M36 1103q13 12 32 35q26 33 30 38q39 44 82 46q102 4 249 -135q106 -101 165 -220q105 54 192 161q61 75 138 215q116 -141 114 -123q12 -98 -135 -253q-106 -111 -216 -174q139 -233 381 -312q3 -11 -18 -31q-6 -5 -20 -17q-12 -10 -17 -16q-57 -56 -72 -59 q-94 -17 -258 131q-110 99 -174 216q-212 -116 -312 -385q-8 -4 -20 6q2 -1 -18 19q-86 86 -115 123q171 305 377 410q-100 192 -385 325z" />
<glyph unicode="&#xd8;" horiz-adv-x="1471" d="M41 36q3 17 28 49q28 35 36 54q3 8 5 28q1 21 5 31q6 18 30 59q19 34 19 50q0 22 -30 89q-35 79 -39 93q-24 86 -24 201q-2 304 155 511q164 216 435 237q222 17 418 -98q71 77 64 73q19 10 55 11q44 1 58 4q31 7 87 40q61 36 85 44q-20 -68 -71 -181q-67 -146 -81 -183 q88 -162 96 -360q8 -191 -61 -365q-70 -178 -202 -289q-141 -119 -325 -132q-205 -15 -423 103q-3 -3 -30 -98q-44 11 -148 7q-88 -3 -142 22zM395 631q63 65 205 164q166 117 223 166q127 108 123 133q-2 12 -49 34q-43 21 -79 30q-195 48 -319 -135q-112 -164 -104 -392z M498 356q2 -14 58 -41q47 -22 70 -28q210 -54 323 136q84 142 100 385q0 6 -5 5q-64 -67 -202 -168q-177 -130 -221 -166q-125 -105 -123 -123z" />
<glyph unicode="&#xd9;" horiz-adv-x="1176" d="M38 455q-10 111 41 401q45 259 9 402q-5 21 -24 68q-19 46 -26 71q103 46 358 35q89 -235 0 -625l-48 -205q-20 -122 8 -192q28 -72 126 -113q105 -44 186 -1q53 28 80 155q7 35 18 109q10 69 16 98q6 26 20 61q16 39 20 53q35 128 26 312q-3 68 -31 298q81 49 263 40 q92 -296 0 -873q-34 -213 -38 -230q-28 -120 -86 -177q-79 -77 -211 -115q-125 -36 -245 -24q-188 20 -312 136q-132 122 -150 316z" />
<glyph unicode="&#xda;" horiz-adv-x="1176" d="M38 455q-10 111 41 401q45 259 9 402q-5 21 -24 68q-19 46 -26 71q103 46 358 35q89 -235 0 -625l-48 -205q-20 -122 8 -192q28 -72 126 -113q105 -44 186 -1q53 28 80 155q7 35 18 109q10 69 16 98q6 26 20 61q16 39 20 53q35 128 26 312q-3 68 -31 298q81 49 263 40 q92 -296 0 -873q-34 -213 -38 -230q-28 -120 -86 -177q-79 -77 -211 -115q-125 -36 -245 -24q-188 20 -312 136q-132 122 -150 316z" />
<glyph unicode="&#xdb;" horiz-adv-x="1176" d="M38 455q-10 111 41 401q45 259 9 402q-5 21 -24 68q-19 46 -26 71q103 46 358 35q89 -235 0 -625l-48 -205q-20 -122 8 -192q28 -72 126 -113q105 -44 186 -1q53 28 80 155q7 35 18 109q10 69 16 98q6 26 20 61q16 39 20 53q35 128 26 312q-3 68 -31 298q81 49 263 40 q92 -296 0 -873q-34 -213 -38 -230q-28 -120 -86 -177q-79 -77 -211 -115q-125 -36 -245 -24q-188 20 -312 136q-132 122 -150 316z" />
<glyph unicode="&#xdc;" horiz-adv-x="1176" d="M38 455q-10 111 41 401q45 259 9 402q-5 21 -24 68q-19 46 -26 71q103 46 358 35q89 -235 0 -625l-48 -205q-20 -122 8 -192q28 -72 126 -113q105 -44 186 -1q53 28 80 155q7 35 18 109q10 69 16 98q6 26 20 61q16 39 20 53q35 128 26 312q-3 68 -31 298q81 49 263 40 q92 -296 0 -873q-34 -213 -38 -230q-28 -120 -86 -177q-79 -77 -211 -115q-125 -36 -245 -24q-188 20 -312 136q-132 122 -150 316z" />
<glyph unicode="&#xdd;" horiz-adv-x="1329" d="M22 1370q18 4 126 34q78 22 131 26q115 9 148 0q22 -6 104 -109q163 -203 223 -400q180 163 257 494q45 -21 125 -12q106 11 147 7q-70 -475 -411 -776q-88 -78 -89 -79q-16 -35 -24 -178q-12 -184 39 -376q-21 -4 -55 10q-47 21 -63 25q-18 4 -116 7q-71 3 -102 27 q-37 234 -5 450q2 14 15 73q9 44 10 71q3 180 -163 420q-72 103 -297 286z" />
<glyph unicode="&#xde;" horiz-adv-x="1120" />
<glyph unicode="&#xdf;" horiz-adv-x="963" d="M62 713q3 40 27 133q24 89 28 146q2 25 6 98q3 61 6 95q12 104 49 151t122 74q78 25 157 24q100 -2 195 -48q94 -44 139 -110q65 -96 44 -213q-18 -104 -95 -192q5 5 -57 -54q-39 -36 -41 -57q-3 -39 48 -99q16 -19 44 -47q32 -33 39 -40q85 -96 103 -123q53 -79 55 -165 q1 -100 -53 -169q-49 -63 -136 -93q-177 -60 -364 29q-14 0 -14 5q3 1 0 -14q-44 4 -150 -7q-84 -8 -134 7q-61 230 -18 669zM308 374q18 -9 69 -38q47 -27 75 -41q56 -28 84 -34q54 -13 88 15q-9 49 -54 99q-13 14 -41 42q-27 26 -40 41q-122 137 -130 274 q-54 -221 -51 -358zM401 862q7 30 97 120q79 79 70 140q-6 39 -52 54q-45 15 -83 -3q-12 -205 -32 -311z" />
<glyph unicode="&#xe0;" d="M39 5q46 484 237 771q27 40 104 149q67 93 103 151q113 180 150 350q55 13 137 5q117 -11 150 -10q124 -249 192 -781q24 -184 136 -353q41 -62 211 -262q-156 6 -317 -15q-93 -12 -101 -10q-28 8 -110 156q-21 38 -86 182q-279 64 -408 90q-102 -157 -91 -382 q-66 4 -307 -41zM583 690q103 -28 191 -60q-11 232 -30 282q-24 -42 -80 -111q-58 -72 -81 -111z" />
<glyph unicode="&#xe1;" d="M39 5q46 484 237 771q27 40 104 149q67 93 103 151q113 180 150 350q55 13 137 5q117 -11 150 -10q124 -249 192 -781q24 -184 136 -353q41 -62 211 -262q-156 6 -317 -15q-93 -12 -101 -10q-28 8 -110 156q-21 38 -86 182q-279 64 -408 90q-102 -157 -91 -382 q-66 4 -307 -41zM583 690q103 -28 191 -60q-11 232 -30 282q-24 -42 -80 -111q-58 -72 -81 -111z" />
<glyph unicode="&#xe2;" d="M39 5q46 484 237 771q27 40 104 149q67 93 103 151q113 180 150 350q55 13 137 5q117 -11 150 -10q124 -249 192 -781q24 -184 136 -353q41 -62 211 -262q-156 6 -317 -15q-93 -12 -101 -10q-28 8 -110 156q-21 38 -86 182q-279 64 -408 90q-102 -157 -91 -382 q-66 4 -307 -41zM583 690q103 -28 191 -60q-11 232 -30 282q-24 -42 -80 -111q-58 -72 -81 -111z" />
<glyph unicode="&#xe3;" d="M39 5q46 484 237 771q27 40 104 149q67 93 103 151q113 180 150 350q55 13 137 5q117 -11 150 -10q124 -249 192 -781q24 -184 136 -353q41 -62 211 -262q-156 6 -317 -15q-93 -12 -101 -10q-28 8 -110 156q-21 38 -86 182q-279 64 -408 90q-102 -157 -91 -382 q-66 4 -307 -41zM583 690q103 -28 191 -60q-11 232 -30 282q-24 -42 -80 -111q-58 -72 -81 -111z" />
<glyph unicode="&#xe4;" d="M39 5q46 484 237 771q27 40 104 149q67 93 103 151q113 180 150 350q55 13 137 5q117 -11 150 -10q124 -249 192 -781q24 -184 136 -353q41 -62 211 -262q-156 6 -317 -15q-93 -12 -101 -10q-28 8 -110 156q-21 38 -86 182q-279 64 -408 90q-102 -157 -91 -382 q-66 4 -307 -41zM583 690q103 -28 191 -60q-11 232 -30 282q-24 -42 -80 -111q-58 -72 -81 -111z" />
<glyph unicode="&#xe5;" d="M39 5q46 484 237 771q27 40 104 149q67 93 103 151q113 180 150 350q55 13 137 5q117 -11 150 -10q124 -249 192 -781q24 -184 136 -353q41 -62 211 -262q-156 6 -317 -15q-93 -12 -101 -10q-28 8 -110 156q-21 38 -86 182q-279 64 -408 90q-102 -157 -91 -382 q-66 4 -307 -41zM583 690q103 -28 191 -60q-11 232 -30 282q-24 -42 -80 -111q-58 -72 -81 -111z" />
<glyph unicode="&#xe6;" horiz-adv-x="1784" d="M45 5q25 313 182 583q118 203 349 435q212 211 246 270q9 16 21 41q13 29 17 38q22 41 57 62q452 -89 727 0q22 -45 42 -174q19 -120 49 -167q-87 28 -241 10q-173 -21 -266 -5q-10 -33 -21 -133q-11 -101 -24 -143q90 -28 406 0q7 -134 -40 -291q-375 4 -441 15 q-41 -80 -50 -265q262 -54 662 30q-26 -46 -21 -134q5 -99 -10 -142q-508 -77 -957 15q0 24 -1 181q0 111 6 175q9 -5 -256 60q-38 -55 -180 -406q-65 2 -136 -19q-118 -36 -120 -36zM687 717q25 -1 59 -14q38 -14 56 -16q5 17 35 101q23 62 25 99q-26 -30 -88 -85 q-60 -54 -87 -85z" />
<glyph unicode="&#xe7;" horiz-adv-x="1276" d="M39 669q-1 333 151 535q155 208 437 229q128 10 534 -64q28 -244 83 -377q-39 11 -260 105q-156 66 -279 62q-105 -4 -175 -74q-51 -50 -99 -156q-50 -109 -59 -275q-6 -104 33 -193q38 -88 109 -140q114 -83 298 -57q156 22 295 106q-1 -31 1 -82q3 -62 3 -81 q0 -92 -29 -136q-134 -66 -284 -78q44 -50 42 -135q-1 -87 -52 -130q-71 -59 -183 -44q-95 13 -179 69q2 59 -31 121q-4 8 -30 51q-18 31 -27 53q10 5 32 -5q28 -13 36 -14q2 6 11 43q7 26 14 40q-194 87 -287 227q-105 155 -105 400z" />
<glyph unicode="&#xe8;" horiz-adv-x="1035" d="M46 512q6 80 44 276q35 177 37 277q2 122 -66 360q148 17 431 3q289 -13 436 2q6 -44 31 -159q21 -99 25 -150q-358 10 -507 35q2 -153 -20 -238q46 -7 208 -62q119 -41 223 -30q-13 -44 -36 -136q-22 -93 -35 -137q-113 -7 -229 27q7 -2 -197 69q-45 -111 -41 -330 q441 -47 573 -35q10 -43 36 -139q25 -88 35 -140q4 0 -446 10q-40 1 -117 6t-114 6q-129 2 -210 -27q-81 240 -61 512z" />
<glyph unicode="&#xe9;" horiz-adv-x="1035" d="M46 512q6 80 44 276q35 177 37 277q2 122 -66 360q148 17 431 3q289 -13 436 2q6 -44 31 -159q21 -99 25 -150q-358 10 -507 35q2 -153 -20 -238q46 -7 208 -62q119 -41 223 -30q-13 -44 -36 -136q-22 -93 -35 -137q-113 -7 -229 27q7 -2 -197 69q-45 -111 -41 -330 q441 -47 573 -35q10 -43 36 -139q25 -88 35 -140q4 0 -446 10q-40 1 -117 6t-114 6q-129 2 -210 -27q-81 240 -61 512z" />
<glyph unicode="&#xea;" horiz-adv-x="1035" d="M46 512q6 80 44 276q35 177 37 277q2 122 -66 360q148 17 431 3q289 -13 436 2q6 -44 31 -159q21 -99 25 -150q-358 10 -507 35q2 -153 -20 -238q46 -7 208 -62q119 -41 223 -30q-13 -44 -36 -136q-22 -93 -35 -137q-113 -7 -229 27q7 -2 -197 69q-45 -111 -41 -330 q441 -47 573 -35q10 -43 36 -139q25 -88 35 -140q4 0 -446 10q-40 1 -117 6t-114 6q-129 2 -210 -27q-81 240 -61 512z" />
<glyph unicode="&#xeb;" horiz-adv-x="1035" d="M46 512q6 80 44 276q35 177 37 277q2 122 -66 360q148 17 431 3q289 -13 436 2q6 -44 31 -159q21 -99 25 -150q-358 10 -507 35q2 -153 -20 -238q46 -7 208 -62q119 -41 223 -30q-13 -44 -36 -136q-22 -93 -35 -137q-113 -7 -229 27q7 -2 -197 69q-45 -111 -41 -330 q441 -47 573 -35q10 -43 36 -139q25 -88 35 -140q4 0 -446 10q-40 1 -117 6t-114 6q-129 2 -210 -27q-81 240 -61 512z" />
<glyph unicode="&#xec;" horiz-adv-x="560" d="M57 411q-3 99 62 337q63 232 56 372q-7 122 -77 298q1 8 -5 10q60 7 168 6q145 -2 176 -1q113 -268 46 -636q-10 -56 -41 -150q-32 -99 -41 -143q-27 -125 6 -259q18 -71 86 -239q-62 -7 -171 -6q-147 2 -178 1q-84 277 -87 410z" />
<glyph unicode="&#xed;" horiz-adv-x="560" d="M57 411q-3 99 62 337q63 232 56 372q-7 122 -77 298q1 8 -5 10q60 7 168 6q145 -2 176 -1q113 -268 46 -636q-10 -56 -41 -150q-32 -99 -41 -143q-27 -125 6 -259q18 -71 86 -239q-62 -7 -171 -6q-147 2 -178 1q-84 277 -87 410z" />
<glyph unicode="&#xee;" horiz-adv-x="560" d="M57 411q-3 99 62 337q63 232 56 372q-7 122 -77 298q1 8 -5 10q60 7 168 6q145 -2 176 -1q113 -268 46 -636q-10 -56 -41 -150q-32 -99 -41 -143q-27 -125 6 -259q18 -71 86 -239q-62 -7 -171 -6q-147 2 -178 1q-84 277 -87 410z" />
<glyph unicode="&#xef;" horiz-adv-x="560" d="M57 411q-3 99 62 337q63 232 56 372q-7 122 -77 298q1 8 -5 10q60 7 168 6q145 -2 176 -1q113 -268 46 -636q-10 -56 -41 -150q-32 -99 -41 -143q-27 -125 6 -259q18 -71 86 -239q-62 -7 -171 -6q-147 2 -178 1q-84 277 -87 410z" />
<glyph unicode="&#xf0;" horiz-adv-x="1139" />
<glyph unicode="&#xf1;" horiz-adv-x="1237" d="M48 566q6 94 63 422q45 260 29 450q54 2 118 -5q84 -9 115 -10q-8 166 63 228q65 56 174 32q94 -21 160 -81q-2 15 -9 35q-9 23 -11 33h242q38 -101 29 -191q-10 -109 -87 -143h267q18 -181 -28 -444q-60 -340 -64 -413q-11 -165 19 -266q3 -9 12 -34q10 -25 15 -41 q16 -55 7 -104q-47 8 -142 -2q-90 -10 -139 2t-174 160q-238 281 -325 668q-63 -161 -58 -402q4 -214 58 -416q-130 1 -153 -1q-75 -6 -113 -43q-81 325 -68 566zM494 1365q95 -104 173 -383q86 -307 151 -406q5 46 76 367q49 222 31 388q-87 -24 -173 17q-29 13 -69 40 q-54 34 -63 40q-37 -68 -126 -63z" />
<glyph unicode="&#xf2;" horiz-adv-x="1385" d="M55 801q21 157 86 289q68 136 167 213q143 110 328 127q339 32 538 -189q196 -218 168 -585q-14 -184 -106 -344q-90 -159 -223 -234q-199 -114 -454 -61q-244 50 -373 213q-177 221 -131 571zM377 504q5 -28 42 -85q35 -53 56 -72q57 -52 159 -65q106 -15 183 26 q124 66 185 310q62 253 -28 405q-39 67 -120 104t-174 29q-68 -6 -88 -15q-87 -38 -148 -165q-58 -119 -67 -261q-11 -158 0 -211z" />
<glyph unicode="&#xf3;" horiz-adv-x="1385" d="M55 801q21 157 86 289q68 136 167 213q143 110 328 127q339 32 538 -189q196 -218 168 -585q-14 -184 -106 -344q-90 -159 -223 -234q-199 -114 -454 -61q-244 50 -373 213q-177 221 -131 571zM377 504q5 -28 42 -85q35 -53 56 -72q57 -52 159 -65q106 -15 183 26 q124 66 185 310q62 253 -28 405q-39 67 -120 104t-174 29q-68 -6 -88 -15q-87 -38 -148 -165q-58 -119 -67 -261q-11 -158 0 -211z" />
<glyph unicode="&#xf4;" horiz-adv-x="1385" d="M55 801q21 157 86 289q68 136 167 213q143 110 328 127q339 32 538 -189q196 -218 168 -585q-14 -184 -106 -344q-90 -159 -223 -234q-199 -114 -454 -61q-244 50 -373 213q-177 221 -131 571zM377 504q5 -28 42 -85q35 -53 56 -72q57 -52 159 -65q106 -15 183 26 q124 66 185 310q62 253 -28 405q-39 67 -120 104t-174 29q-68 -6 -88 -15q-87 -38 -148 -165q-58 -119 -67 -261q-11 -158 0 -211z" />
<glyph unicode="&#xf5;" horiz-adv-x="1385" d="M55 801q21 157 86 289q68 136 167 213q143 110 328 127q339 32 538 -189q196 -218 168 -585q-14 -184 -106 -344q-90 -159 -223 -234q-199 -114 -454 -61q-244 50 -373 213q-177 221 -131 571zM377 504q5 -28 42 -85q35 -53 56 -72q57 -52 159 -65q106 -15 183 26 q124 66 185 310q62 253 -28 405q-39 67 -120 104t-174 29q-68 -6 -88 -15q-87 -38 -148 -165q-58 -119 -67 -261q-11 -158 0 -211z" />
<glyph unicode="&#xf6;" horiz-adv-x="1385" d="M55 801q21 157 86 289q68 136 167 213q143 110 328 127q339 32 538 -189q196 -218 168 -585q-14 -184 -106 -344q-90 -159 -223 -234q-199 -114 -454 -61q-244 50 -373 213q-177 221 -131 571zM377 504q5 -28 42 -85q35 -53 56 -72q57 -52 159 -65q106 -15 183 26 q124 66 185 310q62 253 -28 405q-39 67 -120 104t-174 29q-68 -6 -88 -15q-87 -38 -148 -165q-58 -119 -67 -261q-11 -158 0 -211z" />
<glyph unicode="&#xf7;" horiz-adv-x="1251" d="M25 608q217 61 382 46q59 -5 152 -39q113 -43 153 -52q233 -55 509 -16v260q-133 -55 -293 -41q-97 9 -286 61q-191 52 -285 62q-160 16 -291 -36q9 -61 -15 -135q-26 -83 -26 -110zM422 222q73 4 321 -36q4 111 -16 209q10 19 37 62q24 39 35 65q-98 -9 -199 9 q-33 5 -88 17q-63 15 -90 20v-167v-179zM538 1065q2 -125 1 -151q52 -9 159 -37q101 -26 162 -34v330q-189 42 -316 36q-7 -51 -6 -144z" />
<glyph unicode="&#xf8;" horiz-adv-x="1471" d="M41 36q3 17 28 49q28 35 36 54q3 8 5 28q1 21 5 31q6 18 30 59q19 34 19 50q0 22 -30 89q-35 79 -39 93q-24 86 -24 201q-2 304 155 511q164 216 435 237q222 17 418 -98q71 77 64 73q19 10 55 11q44 1 58 4q31 7 87 40q61 36 85 44q-20 -68 -71 -181q-67 -146 -81 -183 q88 -162 96 -360q8 -191 -61 -365q-70 -178 -202 -289q-141 -119 -325 -132q-205 -15 -423 103q-3 -3 -30 -98q-44 11 -148 7q-88 -3 -142 22zM395 631q63 65 205 164q166 117 223 166q127 108 123 133q-2 12 -49 34q-43 21 -79 30q-195 48 -319 -135q-112 -164 -104 -392z M498 356q2 -14 58 -41q47 -22 70 -28q210 -54 323 136q84 142 100 385q0 6 -5 5q-64 -67 -202 -168q-177 -130 -221 -166q-125 -105 -123 -123z" />
<glyph unicode="&#xf9;" horiz-adv-x="1176" d="M38 455q-10 111 41 401q45 259 9 402q-5 21 -24 68q-19 46 -26 71q103 46 358 35q89 -235 0 -625l-48 -205q-20 -122 8 -192q28 -72 126 -113q105 -44 186 -1q53 28 80 155q7 35 18 109q10 69 16 98q6 26 20 61q16 39 20 53q35 128 26 312q-3 68 -31 298q81 49 263 40 q92 -296 0 -873q-34 -213 -38 -230q-28 -120 -86 -177q-79 -77 -211 -115q-125 -36 -245 -24q-188 20 -312 136q-132 122 -150 316z" />
<glyph unicode="&#xfa;" horiz-adv-x="1176" d="M38 455q-10 111 41 401q45 259 9 402q-5 21 -24 68q-19 46 -26 71q103 46 358 35q89 -235 0 -625l-48 -205q-20 -122 8 -192q28 -72 126 -113q105 -44 186 -1q53 28 80 155q7 35 18 109q10 69 16 98q6 26 20 61q16 39 20 53q35 128 26 312q-3 68 -31 298q81 49 263 40 q92 -296 0 -873q-34 -213 -38 -230q-28 -120 -86 -177q-79 -77 -211 -115q-125 -36 -245 -24q-188 20 -312 136q-132 122 -150 316z" />
<glyph unicode="&#xfb;" horiz-adv-x="1176" d="M38 455q-10 111 41 401q45 259 9 402q-5 21 -24 68q-19 46 -26 71q103 46 358 35q89 -235 0 -625l-48 -205q-20 -122 8 -192q28 -72 126 -113q105 -44 186 -1q53 28 80 155q7 35 18 109q10 69 16 98q6 26 20 61q16 39 20 53q35 128 26 312q-3 68 -31 298q81 49 263 40 q92 -296 0 -873q-34 -213 -38 -230q-28 -120 -86 -177q-79 -77 -211 -115q-125 -36 -245 -24q-188 20 -312 136q-132 122 -150 316z" />
<glyph unicode="&#xfc;" horiz-adv-x="1176" d="M38 455q-10 111 41 401q45 259 9 402q-5 21 -24 68q-19 46 -26 71q103 46 358 35q89 -235 0 -625l-48 -205q-20 -122 8 -192q28 -72 126 -113q105 -44 186 -1q53 28 80 155q7 35 18 109q10 69 16 98q6 26 20 61q16 39 20 53q35 128 26 312q-3 68 -31 298q81 49 263 40 q92 -296 0 -873q-34 -213 -38 -230q-28 -120 -86 -177q-79 -77 -211 -115q-125 -36 -245 -24q-188 20 -312 136q-132 122 -150 316z" />
<glyph unicode="&#xfd;" horiz-adv-x="1329" d="M22 1370q18 4 126 34q78 22 131 26q115 9 148 0q22 -6 104 -109q163 -203 223 -400q180 163 257 494q45 -21 125 -12q106 11 147 7q-70 -475 -411 -776q-88 -78 -89 -79q-16 -35 -24 -178q-12 -184 39 -376q-21 -4 -55 10q-47 21 -63 25q-18 4 -116 7q-71 3 -102 27 q-37 234 -5 450q2 14 15 73q9 44 10 71q3 180 -163 420q-72 103 -297 286z" />
<glyph unicode="&#xfe;" horiz-adv-x="1010" />
<glyph unicode="&#xff;" horiz-adv-x="1329" d="M22 1370q18 4 126 34q78 22 131 26q115 9 148 0q22 -6 104 -109q163 -203 223 -400q180 163 257 494q45 -21 125 -12q106 11 147 7q-70 -475 -411 -776q-88 -78 -89 -79q-16 -35 -24 -178q-12 -184 39 -376q-21 -4 -55 10q-47 21 -63 25q-18 4 -116 7q-71 3 -102 27 q-37 234 -5 450q2 14 15 73q9 44 10 71q3 180 -163 420q-72 103 -297 286z" />
<glyph unicode="&#x2c6;" horiz-adv-x="1024" />
<glyph unicode="&#x2dc;" horiz-adv-x="1024" />
<glyph unicode="&#x2000;" horiz-adv-x="845" />
<glyph unicode="&#x2001;" horiz-adv-x="1690" />
<glyph unicode="&#x2002;" horiz-adv-x="845" />
<glyph unicode="&#x2003;" horiz-adv-x="1690" />
<glyph unicode="&#x2004;" horiz-adv-x="563" />
<glyph unicode="&#x2005;" horiz-adv-x="422" />
<glyph unicode="&#x2006;" horiz-adv-x="281" />
<glyph unicode="&#x2007;" horiz-adv-x="281" />
<glyph unicode="&#x2008;" horiz-adv-x="211" />
<glyph unicode="&#x2009;" horiz-adv-x="338" />
<glyph unicode="&#x200a;" horiz-adv-x="93" />
<glyph unicode="&#x2010;" horiz-adv-x="960" d="M115 602v223q64 34 111 46q60 15 142 9q49 -3 135 -29q89 -27 126 -31q59 -5 130 14q4 1 58 18q36 11 61 16q5 -38 4 -107q-1 -92 0 -112q-149 -45 -283 -34q-46 4 -108 23q-99 32 -102 33q-63 16 -142 -14q-19 -7 -67 -29q-41 -18 -65 -26z" />
<glyph unicode="&#x2011;" horiz-adv-x="960" d="M115 602v223q64 34 111 46q60 15 142 9q49 -3 135 -29q89 -27 126 -31q59 -5 130 14q4 1 58 18q36 11 61 16q5 -38 4 -107q-1 -92 0 -112q-149 -45 -283 -34q-46 4 -108 23q-99 32 -102 33q-63 16 -142 -14q-19 -7 -67 -29q-41 -18 -65 -26z" />
<glyph unicode="&#x2012;" horiz-adv-x="960" d="M115 602v223q64 34 111 46q60 15 142 9q49 -3 135 -29q89 -27 126 -31q59 -5 130 14q4 1 58 18q36 11 61 16q5 -38 4 -107q-1 -92 0 -112q-149 -45 -283 -34q-46 4 -108 23q-99 32 -102 33q-63 16 -142 -14q-19 -7 -67 -29q-41 -18 -65 -26z" />
<glyph unicode="&#x2013;" horiz-adv-x="1108" />
<glyph unicode="&#x2014;" horiz-adv-x="2048" />
<glyph unicode="&#x2018;" horiz-adv-x="557" />
<glyph unicode="&#x2019;" horiz-adv-x="557" />
<glyph unicode="&#x201a;" horiz-adv-x="557" />
<glyph unicode="&#x201c;" horiz-adv-x="910" />
<glyph unicode="&#x201d;" horiz-adv-x="910" />
<glyph unicode="&#x201e;" horiz-adv-x="910" />
<glyph unicode="&#x2022;" horiz-adv-x="1024" />
<glyph unicode="&#x2026;" horiz-adv-x="2048" />
<glyph unicode="&#x202f;" horiz-adv-x="338" />
<glyph unicode="&#x2039;" horiz-adv-x="631" />
<glyph unicode="&#x203a;" horiz-adv-x="631" />
<glyph unicode="&#x205f;" horiz-adv-x="422" />
<glyph unicode="&#x20ac;" horiz-adv-x="1249" d="M28 539q6 139 10 153q2 9 13 31q9 21 11 33q3 17 1 54q-3 39 -1 59q2 11 30 81q21 52 10 91h128q155 364 477 394q198 18 501 -99q9 -292 -5 -344q-22 7 -175 93q-116 64 -208 64q-152 1 -236 -152q216 -89 506 -113q-104 -170 -103 -217q-28 -35 -67 -117 q-40 -85 -66 -119q-38 3 -369 94q-1 -109 87 -181q83 -68 199 -70q114 -2 244 78q29 18 184 138q4 -36 -18 -94q-26 -65 -27 -98q0 -12 12 -71q9 -47 -2 -76q-19 -51 -134 -98q-101 -42 -186 -50q-291 -25 -484 140q-183 156 -209 421q-25 -1 -62 -12q-39 -11 -61 -13z" />
<glyph unicode="&#x2122;" horiz-adv-x="4378" d="M75 453q47 -63 56 -163q13 -137 32 -187h74q-3 77 60 179q-14 -93 20 -189q18 -7 81 -7q0 -3 72 183q44 111 41 205q0 1 -1 1q-4 -2 -14 -10q-8 -7 -15 -8q-3 -1 -14 -1q-7 0 -12 -3q-13 -8 -20 -53q-13 -85 -59 -159q15 99 -14 214q-4 0 -75 8q-15 -99 -72 -177 q-7 121 -46 180q1 0 -94 -13zM77 905q-22 -196 18 -288q90 6 113 -6q-40 144 4 317q7 -158 53 -270q24 1 113 -13q38 111 119 213q-34 -136 4 -249q83 -3 141 19q-21 81 4 315q14 128 -13 266q-26 0 -67 -5q-43 -6 -62 -6q-9 -103 -57 -193q-32 -60 -103 -147 q13 152 -51 287q-32 67 -47 72q-8 3 -61 0q-50 -2 -107 -17q23 -83 -1 -295zM545 312q-12 -94 35 -153q34 -43 100 -57q68 -14 121 17q36 20 60 62q24 43 28 92q7 98 -45 156q-53 59 -144 51q-49 -5 -87 -34q-56 -43 -68 -134zM631 232q-3 15 0 57q2 38 18 70q16 33 40 44 q5 2 23 4q55 4 79 -36q24 -41 7 -108q-16 -65 -49 -83q-21 -11 -49 -7q-27 4 -43 18q-22 19 -26 41zM699 610q102 19 130 17q-5 95 38 162q54 -11 172 -39q27 -60 36 -76q35 -63 47 -66q3 -1 43 4q67 9 134 6q-72 84 -90 111q-47 71 -57 149q-29 224 -81 330q-14 -1 -63 4 q-35 3 -58 -2q-16 -72 -64 -148q-15 -24 -43 -64q-33 -46 -44 -63q-81 -121 -100 -325zM929 899q9 17 34 47q24 29 34 47q8 -21 12 -119q-37 13 -80 25zM938 312q-13 -94 35 -153q34 -43 99 -57q69 -14 122 17q35 20 60 62q24 43 28 92q7 98 -45 156q-53 59 -144 51 q-50 -5 -88 -34q-55 -43 -67 -134zM1024 232q-3 15 0 57q2 38 18 70q16 33 39 44q6 2 24 4q55 4 78 -36q24 -41 8 -108q-16 -65 -49 -83q-21 -11 -49 -7t-43 18q-22 19 -26 41zM1311 251q-7 -79 13 -154q20 18 66 18q12 0 47 -1q28 0 43 1q45 2 73 23q73 53 80 155 q7 97 -62 146q-63 46 -170 40q-15 -1 -44 -3q-27 -3 -45 -3q18 -41 13 -106q-2 -20 -7 -58q-5 -39 -7 -58zM1335 1196q25 -56 22 -136q-1 -28 -16 -145q-22 -179 4 -291q19 -7 63 -4q39 2 59 -9q-50 171 17 374q9 -25 35 -108q20 -67 37 -104q35 -78 123 -164q41 -1 141 15 q-36 89 -12 283q25 205 -1 295q-19 6 -65 4q-42 -2 -63 9q57 -142 -8 -372q-15 28 -34 103q-18 76 -36 112q-17 32 -60 83q-59 69 -72 72q-54 13 -134 -17zM1388 191q-1 44 13 111q16 73 17 107q93 -6 116 -45q20 -35 6 -93q-14 -56 -46 -76q-18 -11 -48 -9q-5 0 -27 3 q-19 2 -31 2zM1656 308q-14 -97 30 -151q42 -52 126 -62t148 32q-8 8 -9 32q-2 42 -2 40q-46 -31 -105 -32q-64 -1 -90 40q-27 43 -9 107q18 63 62 81q34 14 83 -5q63 -24 78 -25q1 47 -9 94q-17 2 -51 8q-33 5 -50 7q-56 6 -92 -9q-24 -10 -42 -23q-55 -37 -68 -134z M1872 957q-20 -152 57 -248q56 -70 162 -92q111 -23 197 26q58 33 97 102q40 69 46 149q12 159 -73 254q-86 96 -233 82q-81 -7 -143 -55q-90 -70 -110 -218zM2009 219q5 -51 40 -83q32 -31 82 -36q75 -8 120 36q19 19 33 108q24 152 0 230q-48 3 -69 -10q14 -116 1 -161 q-1 -4 -5 -14t-5 -16q-2 -8 -5 -26q-3 -20 -5 -29q-7 -34 -21 -41q-21 -11 -49 0q-25 11 -33 30q-9 22 10 105q24 103 0 165q-67 3 -94 -9q2 -7 7 -19t6 -18q10 -38 -2 -106q-14 -77 -11 -106zM2012 828q-5 23 0 92q4 61 29 113q27 55 64 72q9 4 39 6q40 4 75 -12t52 -45 q39 -67 12 -176q-26 -106 -80 -135q-33 -18 -79 -11q-44 6 -70 28q-35 32 -42 68zM2327 441q4 -22 4 -34q107 4 128 -1q-1 -26 -29 -142q-21 -84 -1 -146q10 -3 46 -8q30 -4 43 -12q-18 85 -13 118q2 19 24 86q18 53 15 92q13 -2 97 2q6 15 -5 80q-50 -8 -157 0 q-100 7 -151 -4q-5 -13 -1 -31zM2495 860q-15 -124 20 -243q42 2 197 -3q117 -4 181 10q-35 104 -34 102q-132 -5 -236 19q-10 61 16 149q31 106 33 144q5 96 -28 175q-105 3 -146 -17q35 -61 25 -161q-3 -30 -13 -87q-11 -62 -15 -88zM2681 441q5 -22 4 -34q108 4 129 -1 q-1 -26 -29 -142q-21 -84 -2 -146q11 -3 47 -8q30 -4 42 -12q-17 85 -13 118q3 19 25 86q17 53 15 92q13 -2 97 2q5 15 -6 80q-49 -8 -157 0q-99 7 -150 -4q-5 -13 -2 -31zM2926 827q-9 -114 25 -215q28 10 185 6q189 -4 187 -4q-4 22 -14 59q-11 40 -15 58q-56 -5 -241 15 q-1 92 17 138q125 -43 179 -40q6 18 15 57t15 58q-44 -5 -94 12q-68 23 -87 26q9 36 9 100q62 -11 212 -15q-1 22 -10 63q-11 48 -13 67q-62 -6 -183 -1q-119 6 -181 -1q29 -100 28 -151q-1 -42 -16 -117q-16 -81 -18 -115zM3032 242q-5 -70 16 -132q17 6 114 4 q116 -3 115 -2q-3 13 -9 36q-7 24 -9 36q-35 -4 -148 9q-2 56 10 85q77 -27 110 -25q3 11 9 35l9 36q-26 -3 -57 7q-42 14 -54 16q6 22 5 62q39 -7 131 -9q-1 13 -6 39q-7 29 -8 40q-38 -3 -113 0q-73 4 -111 -1q18 -61 17 -93q-1 -26 -10 -71q-9 -51 -11 -72zM3310 469 q19 -57 4 -177q-15 -122 4 -180q72 -1 78 -3q-24 98 -4 154q8 1 10 -7q1 -2 2 -6q1 -5 1 -6q22 -59 61 -104q25 -29 34 -31q13 -4 51 -1q19 1 65 15q-106 68 -132 142q44 9 67 54q22 45 4 92q-20 51 -100 65q-68 11 -145 -7zM3366 1159q8 -37 7 -55q174 6 208 -2 q-1 -43 -47 -231q-33 -137 -2 -237q17 -6 75 -13q49 -7 70 -19q-29 137 -21 191q4 31 39 139q28 87 24 150q22 -4 158 3q10 26 4 66q-2 12 -6 32q-5 23 -7 31q-80 -11 -255 1q-161 12 -245 -7q-8 -21 -2 -49zM3407 335q7 52 6 72q23 1 42 -7q23 -10 25 -28q3 -28 -18 -38 q1 1 -55 1zM3629 193q7 -15 5 -43q-1 -32 2 -44q14 3 48 1q29 -1 43 7q-1 8 0 45q1 29 -3 43q-11 -3 -48 -2q-32 1 -47 -7zM3769 242q-6 -70 15 -132q17 6 114 4q116 -3 115 -2q-2 13 -9 36q-7 25 -9 36q-34 -4 -148 9q-1 56 11 85q76 -27 110 -25q3 11 9 35q5 24 9 36 q-27 -3 -58 7q-42 14 -53 16q5 22 5 62q38 -7 131 -9q-1 13 -7 39q-6 29 -8 40q-38 -3 -112 0q-73 4 -112 -1q18 -61 17 -93q0 -26 -9 -71q-10 -51 -11 -72zM3918 827q-8 -114 26 -215q28 10 185 6q189 -4 187 -4q-4 22 -15 59q-11 40 -15 58q-55 -5 -240 15q-2 92 17 138 q124 -43 179 -40q5 18 14 57q10 39 15 58q-43 -5 -93 12q-68 23 -87 26q9 36 8 100q63 -11 213 -15q-2 22 -11 63q-10 48 -13 67q-61 -6 -183 -1q-118 6 -180 -1q28 -100 27 -151q0 -42 -15 -117q-16 -81 -19 -115zM4035 222q8 -16 13 -47q8 -43 10 -52q70 -31 141 -15 q78 16 84 81q3 26 -2 46q-8 29 -72 93q-52 52 -50 66q3 18 35 15q20 -2 46 -16q34 -18 42 -21q7 17 3 46q-4 33 -2 46q-105 21 -115 21q-42 -2 -69 -27t-29 -64q-2 -33 19 -62q-2 3 42 -48q3 -3 16 -18q10 -12 17 -20q29 -31 29 -43q0 -32 -45 -26q-20 3 -57 23 q-37 19 -56 22z" />
<glyph unicode="&#x25fc;" horiz-adv-x="1435" d="M0 0v1435h1435v-1435h-1435z" />
</font>
</defs>
</svg>
